%TF.GenerationSoftware,KiCad,Pcbnew,9.0.4*%
%TF.CreationDate,2026-07-01T04:03:55+02:00*%
%TF.ProjectId,timer_pcb,74696d65-725f-4706-9362-2e6b69636164,rev?*%
%TF.SameCoordinates,Original*%
%TF.FileFunction,Copper,L2,Bot*%
%TF.FilePolarity,Positive*%
%FSLAX46Y46*%
G04 Gerber Fmt 4.6, Leading zero omitted, Abs format (unit mm)*
G04 Created by KiCad (PCBNEW 9.0.4) date 2026-07-01 04:03:55*
%MOMM*%
%LPD*%
G01*
G04 APERTURE LIST*
%TA.AperFunction,ComponentPad*%
%ADD10R,1.700000X1.700000*%
%TD*%
%TA.AperFunction,ComponentPad*%
%ADD11C,1.700000*%
%TD*%
%TA.AperFunction,ComponentPad*%
%ADD12C,1.800000*%
%TD*%
%TA.AperFunction,HeatsinkPad*%
%ADD13C,0.600000*%
%TD*%
%TA.AperFunction,ComponentPad*%
%ADD14O,3.000000X2.500000*%
%TD*%
%TA.AperFunction,HeatsinkPad*%
%ADD15O,2.100000X1.000000*%
%TD*%
%TA.AperFunction,HeatsinkPad*%
%ADD16O,1.800000X1.000000*%
%TD*%
%TA.AperFunction,ViaPad*%
%ADD17C,0.600000*%
%TD*%
%TA.AperFunction,ViaPad*%
%ADD18C,1.000000*%
%TD*%
%TA.AperFunction,Conductor*%
%ADD19C,0.250000*%
%TD*%
%TA.AperFunction,Conductor*%
%ADD20C,0.500000*%
%TD*%
%TA.AperFunction,Conductor*%
%ADD21C,0.600000*%
%TD*%
G04 APERTURE END LIST*
D10*
%TO.P,J3,1,Pin_1*%
%TO.N,/gpio_26*%
X89425000Y-61770000D03*
D11*
%TO.P,J3,2,Pin_2*%
%TO.N,GND*%
X89425000Y-64310000D03*
%TD*%
D12*
%TO.P,U4,1,VCC*%
%TO.N,+3V3*%
X92590000Y-83691665D03*
%TO.P,U4,2,PIN*%
%TO.N,/gpio_25*%
X92590000Y-78710000D03*
%TO.P,U4,3,GND*%
%TO.N,GND*%
X92590000Y-73691665D03*
%TD*%
D13*
%TO.P,U1,39,GND*%
%TO.N,GND*%
X113352500Y-55745000D03*
X113352500Y-57145000D03*
X114052500Y-55045000D03*
X114052500Y-56445000D03*
X114052500Y-57845000D03*
X114752500Y-55745000D03*
X114752500Y-57145000D03*
X115452500Y-55045000D03*
X115452500Y-56445000D03*
X115452500Y-57845000D03*
X116152500Y-55745000D03*
X116152500Y-57145000D03*
%TD*%
D10*
%TO.P,J4,1,Pin_1*%
%TO.N,+3V3*%
X89255000Y-78530000D03*
D11*
%TO.P,J4,2,Pin_2*%
%TO.N,GND*%
X89255000Y-75990000D03*
%TD*%
D14*
%TO.P,SW2,1,1*%
%TO.N,/gpio_17*%
X128630000Y-75830000D03*
X141130000Y-75830000D03*
%TO.P,SW2,2,2*%
%TO.N,GND*%
X128630000Y-80830000D03*
X141130000Y-80830000D03*
%TD*%
%TO.P,SW1,1,1*%
%TO.N,/gpio_16*%
X111650000Y-77340000D03*
X124150000Y-77340000D03*
%TO.P,SW1,2,2*%
%TO.N,GND*%
X111650000Y-82340000D03*
X124150000Y-82340000D03*
%TD*%
D15*
%TO.P,J1,S1,SHIELD*%
%TO.N,GND*%
X136850000Y-69410000D03*
D16*
X141030000Y-69410000D03*
D15*
X136850000Y-60770000D03*
D16*
X141030000Y-60770000D03*
%TD*%
D17*
%TO.N,/U3_DTR*%
X104710000Y-67190000D03*
X105590000Y-58030000D03*
X128990000Y-57190000D03*
%TO.N,/U3_RTS*%
X126590000Y-50610000D03*
X103050000Y-58400000D03*
X126980000Y-57970000D03*
%TO.N,GND*%
X95170000Y-73860000D03*
D18*
X111160000Y-61010000D03*
X141540000Y-53270000D03*
D17*
X119570000Y-49450000D03*
D18*
X111120000Y-68320000D03*
D17*
X132110000Y-55710000D03*
D18*
X141000000Y-57310000D03*
D17*
X109620000Y-57540000D03*
D18*
X112760000Y-53320000D03*
D17*
X118580000Y-52680000D03*
%TO.N,/res*%
X116460000Y-63890000D03*
X105360000Y-73700000D03*
%TO.N,/gpio_25*%
X101280000Y-60440000D03*
%TO.N,/dc*%
X106760000Y-72840000D03*
X115150000Y-68400000D03*
%TO.N,/gpio_16*%
X126790000Y-63370000D03*
X130170000Y-62230000D03*
%TO.N,/gpio_17*%
X127120000Y-61500000D03*
X130910000Y-61330000D03*
D18*
%TO.N,+3V3*%
X110210000Y-49590000D03*
X128630000Y-65455000D03*
X107260000Y-69450000D03*
X122540000Y-69450000D03*
X104560000Y-69450000D03*
X139320000Y-58290000D03*
%TO.N,VBUS*%
X133050000Y-67490000D03*
X127585000Y-71725000D03*
D17*
%TO.N,Net-(J1-CC1)*%
X134060000Y-66740000D03*
X134060000Y-68610000D03*
%TO.N,Net-(J1-CC2)*%
X133620000Y-61600000D03*
X134180000Y-63440000D03*
%TO.N,/cs*%
X115840000Y-61830000D03*
X101650000Y-74390000D03*
%TO.N,/mosi*%
X105160000Y-74640000D03*
X117200000Y-59700000D03*
%TO.N,/sck*%
X122030000Y-60310000D03*
X104940000Y-75490000D03*
%TD*%
D19*
%TO.N,/U3_DTR*%
X106586000Y-59026000D02*
X105590000Y-58030000D01*
X104710000Y-58910000D02*
X105590000Y-58030000D01*
X104710000Y-67190000D02*
X104710000Y-58910000D01*
X127154000Y-59026000D02*
X106586000Y-59026000D01*
X128990000Y-57190000D02*
X127154000Y-59026000D01*
%TO.N,/U3_RTS*%
X121260000Y-52250000D02*
X121260000Y-51436000D01*
X110444000Y-51436000D02*
X103480000Y-58400000D01*
X121260000Y-51436000D02*
X110444000Y-51436000D01*
X126980000Y-57970000D02*
X121260000Y-52250000D01*
X126590000Y-50610000D02*
X125764000Y-51436000D01*
X103480000Y-58400000D02*
X103050000Y-58400000D01*
X125764000Y-51436000D02*
X121260000Y-51436000D01*
D20*
%TO.N,GND*%
X141000000Y-57310000D02*
X141540000Y-56770000D01*
X141540000Y-56770000D02*
X141540000Y-53270000D01*
D19*
%TO.N,/res*%
X112902190Y-73700000D02*
X105360000Y-73700000D01*
X116460000Y-63890000D02*
X116460000Y-70142190D01*
X116460000Y-70142190D02*
X112902190Y-73700000D01*
%TO.N,/gpio_25*%
X101140000Y-60520000D02*
X100850000Y-60520000D01*
X100530000Y-70770000D02*
X92590000Y-78710000D01*
X101220000Y-60440000D02*
X101140000Y-60520000D01*
X100530000Y-60840000D02*
X100530000Y-70770000D01*
X100850000Y-60520000D02*
X100530000Y-60840000D01*
X101280000Y-60440000D02*
X101220000Y-60440000D01*
%TO.N,/dc*%
X115150000Y-68400000D02*
X115150000Y-70410000D01*
X112720000Y-72840000D02*
X106760000Y-72840000D01*
X115150000Y-70410000D02*
X112720000Y-72840000D01*
X106760000Y-72840000D02*
X106755000Y-72845000D01*
%TO.N,/gpio_16*%
X127930000Y-62230000D02*
X126790000Y-63370000D01*
X130170000Y-62230000D02*
X127930000Y-62230000D01*
%TO.N,/gpio_17*%
X130910000Y-61330000D02*
X127290000Y-61330000D01*
X127290000Y-61330000D02*
X127120000Y-61500000D01*
D21*
%TO.N,+3V3*%
X134316000Y-59769000D02*
X128630000Y-65455000D01*
X102249000Y-67139000D02*
X102249000Y-57551000D01*
X138981000Y-59769000D02*
X134316000Y-59769000D01*
X102249000Y-67139000D02*
X104560000Y-69450000D01*
X104560000Y-69450000D02*
X107260000Y-69450000D01*
X124635000Y-69450000D02*
X128630000Y-65455000D01*
X92590000Y-83691665D02*
X92590000Y-81420000D01*
X102249000Y-57551000D02*
X110210000Y-49590000D01*
X92590000Y-81420000D02*
X104560000Y-69450000D01*
X139320000Y-59430000D02*
X138981000Y-59769000D01*
X122540000Y-69450000D02*
X124635000Y-69450000D01*
X139320000Y-58290000D02*
X139320000Y-59430000D01*
D20*
%TO.N,VBUS*%
X131820000Y-67490000D02*
X133050000Y-67490000D01*
X127585000Y-71725000D02*
X131820000Y-67490000D01*
D19*
%TO.N,Net-(J1-CC1)*%
X134060000Y-68610000D02*
X134060000Y-66740000D01*
%TO.N,Net-(J1-CC2)*%
X133620000Y-61600000D02*
X133620000Y-62780000D01*
X134210000Y-63370000D02*
X134210000Y-63410000D01*
X134210000Y-63410000D02*
X134180000Y-63440000D01*
X133620000Y-62780000D02*
X134210000Y-63370000D01*
%TO.N,/cs*%
X103890000Y-72150000D02*
X101650000Y-74390000D01*
X115840000Y-61830000D02*
X113910000Y-63760000D01*
X101650000Y-74390000D02*
X101650000Y-74440000D01*
X113910000Y-63760000D02*
X113910000Y-70110000D01*
X113910000Y-70110000D02*
X113910000Y-70840000D01*
X113910000Y-70840000D02*
X112600000Y-72150000D01*
X112600000Y-72150000D02*
X103890000Y-72150000D01*
%TO.N,/mosi*%
X117200000Y-70040000D02*
X117200000Y-59700000D01*
X117200000Y-70040000D02*
X112600000Y-74640000D01*
X112600000Y-74640000D02*
X105160000Y-74640000D01*
X105160000Y-74640000D02*
X105140000Y-74620000D01*
X117200000Y-59700000D02*
X117200000Y-59770000D01*
%TO.N,/sck*%
X121714000Y-69792141D02*
X116016141Y-75490000D01*
X121714000Y-60626000D02*
X122030000Y-60310000D01*
X116016141Y-75490000D02*
X104940000Y-75490000D01*
X122030000Y-60310000D02*
X122030000Y-60370000D01*
X121714000Y-69792141D02*
X121714000Y-60626000D01*
%TD*%
%TA.AperFunction,Conductor*%
%TO.N,GND*%
G36*
X142722539Y-47910185D02*
G01*
X142768294Y-47962989D01*
X142779500Y-48014500D01*
X142779500Y-74454557D01*
X142759815Y-74521596D01*
X142707011Y-74567351D01*
X142637853Y-74577295D01*
X142574297Y-74548270D01*
X142567819Y-74542238D01*
X142536670Y-74511089D01*
X142536661Y-74511081D01*
X142354617Y-74371392D01*
X142155890Y-74256657D01*
X142155876Y-74256650D01*
X141943887Y-74168842D01*
X141722238Y-74109452D01*
X141684215Y-74104446D01*
X141494741Y-74079500D01*
X141494734Y-74079500D01*
X140765266Y-74079500D01*
X140765258Y-74079500D01*
X140548715Y-74108009D01*
X140537762Y-74109452D01*
X140462165Y-74129708D01*
X140316112Y-74168842D01*
X140104123Y-74256650D01*
X140104109Y-74256657D01*
X139905382Y-74371392D01*
X139723338Y-74511081D01*
X139561081Y-74673338D01*
X139421392Y-74855382D01*
X139306657Y-75054109D01*
X139306650Y-75054123D01*
X139218842Y-75266112D01*
X139159453Y-75487759D01*
X139159451Y-75487770D01*
X139129500Y-75715258D01*
X139129500Y-75944741D01*
X139151982Y-76115500D01*
X139159452Y-76172238D01*
X139211204Y-76365382D01*
X139218842Y-76393887D01*
X139306650Y-76605876D01*
X139306657Y-76605890D01*
X139421392Y-76804617D01*
X139561081Y-76986661D01*
X139561089Y-76986670D01*
X139723330Y-77148911D01*
X139723338Y-77148918D01*
X139905382Y-77288607D01*
X139905385Y-77288608D01*
X139905388Y-77288611D01*
X140104112Y-77403344D01*
X140104117Y-77403346D01*
X140104123Y-77403349D01*
X140186984Y-77437671D01*
X140316113Y-77491158D01*
X140537762Y-77550548D01*
X140765266Y-77580500D01*
X140765273Y-77580500D01*
X141494727Y-77580500D01*
X141494734Y-77580500D01*
X141722238Y-77550548D01*
X141943887Y-77491158D01*
X142155888Y-77403344D01*
X142354612Y-77288611D01*
X142536661Y-77148919D01*
X142536665Y-77148914D01*
X142536670Y-77148911D01*
X142567819Y-77117762D01*
X142629142Y-77084277D01*
X142698834Y-77089261D01*
X142754767Y-77131133D01*
X142779184Y-77196597D01*
X142779500Y-77205443D01*
X142779500Y-79455263D01*
X142759815Y-79522302D01*
X142707011Y-79568057D01*
X142637853Y-79578001D01*
X142574297Y-79548976D01*
X142567819Y-79542944D01*
X142536336Y-79511461D01*
X142536329Y-79511455D01*
X142354338Y-79371809D01*
X142155668Y-79257106D01*
X142155659Y-79257102D01*
X141943730Y-79169318D01*
X141722137Y-79109942D01*
X141494710Y-79080001D01*
X141494694Y-79080000D01*
X141380000Y-79080000D01*
X141380000Y-80281517D01*
X141361591Y-80270889D01*
X141208991Y-80230000D01*
X141051009Y-80230000D01*
X140898409Y-80270889D01*
X140880000Y-80281517D01*
X140880000Y-79080000D01*
X140765306Y-79080000D01*
X140765289Y-79080001D01*
X140537862Y-79109942D01*
X140316269Y-79169318D01*
X140104340Y-79257102D01*
X140104331Y-79257106D01*
X139905661Y-79371809D01*
X139723670Y-79511455D01*
X139723663Y-79511461D01*
X139561461Y-79673663D01*
X139561455Y-79673670D01*
X139421809Y-79855661D01*
X139307106Y-80054331D01*
X139307102Y-80054340D01*
X139219318Y-80266269D01*
X139159942Y-80487862D01*
X139147811Y-80579999D01*
X139147812Y-80580000D01*
X140581518Y-80580000D01*
X140570889Y-80598409D01*
X140530000Y-80751009D01*
X140530000Y-80908991D01*
X140570889Y-81061591D01*
X140581518Y-81080000D01*
X139147812Y-81080000D01*
X139159942Y-81172137D01*
X139219318Y-81393730D01*
X139307102Y-81605659D01*
X139307106Y-81605668D01*
X139421809Y-81804338D01*
X139561455Y-81986329D01*
X139561461Y-81986336D01*
X139723663Y-82148538D01*
X139723670Y-82148544D01*
X139905661Y-82288190D01*
X140104331Y-82402893D01*
X140104340Y-82402897D01*
X140316269Y-82490681D01*
X140537862Y-82550057D01*
X140765289Y-82579998D01*
X140765306Y-82580000D01*
X140880000Y-82580000D01*
X140880000Y-81378482D01*
X140898409Y-81389111D01*
X141051009Y-81430000D01*
X141208991Y-81430000D01*
X141361591Y-81389111D01*
X141380000Y-81378482D01*
X141380000Y-82580000D01*
X141494694Y-82580000D01*
X141494710Y-82579998D01*
X141722137Y-82550057D01*
X141943730Y-82490681D01*
X142155659Y-82402897D01*
X142155668Y-82402893D01*
X142354338Y-82288190D01*
X142536329Y-82148544D01*
X142536336Y-82148538D01*
X142567819Y-82117056D01*
X142629142Y-82083571D01*
X142698834Y-82088555D01*
X142754767Y-82130427D01*
X142779184Y-82195891D01*
X142779500Y-82204737D01*
X142779500Y-84475500D01*
X142759815Y-84542539D01*
X142707011Y-84588294D01*
X142655500Y-84599500D01*
X93901603Y-84599500D01*
X93834564Y-84579815D01*
X93788809Y-84527011D01*
X93778865Y-84457853D01*
X93791118Y-84419205D01*
X93887895Y-84229271D01*
X93887896Y-84229268D01*
X93933146Y-84090000D01*
X93956015Y-84019616D01*
X93990500Y-83801887D01*
X93990500Y-83581443D01*
X93956015Y-83363714D01*
X93887895Y-83154059D01*
X93887895Y-83154058D01*
X93853237Y-83086040D01*
X93787815Y-82957643D01*
X93687899Y-82820119D01*
X93658247Y-82779306D01*
X93658243Y-82779301D01*
X93522175Y-82643233D01*
X93502365Y-82623423D01*
X93439546Y-82577782D01*
X93437507Y-82576167D01*
X93418770Y-82549658D01*
X93398948Y-82523952D01*
X93398350Y-82520769D01*
X93397178Y-82519111D01*
X93396913Y-82513119D01*
X93390500Y-82478966D01*
X93390500Y-82089999D01*
X109667811Y-82089999D01*
X109667812Y-82090000D01*
X111101518Y-82090000D01*
X111090889Y-82108409D01*
X111050000Y-82261009D01*
X111050000Y-82418991D01*
X111090889Y-82571591D01*
X111101518Y-82590000D01*
X109667812Y-82590000D01*
X109679942Y-82682137D01*
X109739318Y-82903730D01*
X109827102Y-83115659D01*
X109827106Y-83115668D01*
X109941809Y-83314338D01*
X110081455Y-83496329D01*
X110081461Y-83496336D01*
X110243663Y-83658538D01*
X110243670Y-83658544D01*
X110425661Y-83798190D01*
X110624331Y-83912893D01*
X110624340Y-83912897D01*
X110836269Y-84000681D01*
X111057862Y-84060057D01*
X111285289Y-84089998D01*
X111285306Y-84090000D01*
X111400000Y-84090000D01*
X111400000Y-82888482D01*
X111418409Y-82899111D01*
X111571009Y-82940000D01*
X111728991Y-82940000D01*
X111881591Y-82899111D01*
X111900000Y-82888482D01*
X111900000Y-84090000D01*
X112014694Y-84090000D01*
X112014710Y-84089998D01*
X112242137Y-84060057D01*
X112463730Y-84000681D01*
X112675659Y-83912897D01*
X112675668Y-83912893D01*
X112874338Y-83798190D01*
X113056329Y-83658544D01*
X113056336Y-83658538D01*
X113218538Y-83496336D01*
X113218544Y-83496329D01*
X113358190Y-83314338D01*
X113472893Y-83115668D01*
X113472897Y-83115659D01*
X113560681Y-82903730D01*
X113620057Y-82682137D01*
X113632188Y-82590000D01*
X112198482Y-82590000D01*
X112209111Y-82571591D01*
X112250000Y-82418991D01*
X112250000Y-82261009D01*
X112209111Y-82108409D01*
X112198482Y-82090000D01*
X113632188Y-82090000D01*
X113632188Y-82089999D01*
X122167811Y-82089999D01*
X122167812Y-82090000D01*
X123601518Y-82090000D01*
X123590889Y-82108409D01*
X123550000Y-82261009D01*
X123550000Y-82418991D01*
X123590889Y-82571591D01*
X123601518Y-82590000D01*
X122167812Y-82590000D01*
X122179942Y-82682137D01*
X122239318Y-82903730D01*
X122327102Y-83115659D01*
X122327106Y-83115668D01*
X122441809Y-83314338D01*
X122581455Y-83496329D01*
X122581461Y-83496336D01*
X122743663Y-83658538D01*
X122743670Y-83658544D01*
X122925661Y-83798190D01*
X123124331Y-83912893D01*
X123124340Y-83912897D01*
X123336269Y-84000681D01*
X123557862Y-84060057D01*
X123785289Y-84089998D01*
X123785306Y-84090000D01*
X123900000Y-84090000D01*
X123900000Y-82888482D01*
X123918409Y-82899111D01*
X124071009Y-82940000D01*
X124228991Y-82940000D01*
X124381591Y-82899111D01*
X124400000Y-82888482D01*
X124400000Y-84090000D01*
X124514694Y-84090000D01*
X124514710Y-84089998D01*
X124742137Y-84060057D01*
X124963730Y-84000681D01*
X125175659Y-83912897D01*
X125175668Y-83912893D01*
X125374338Y-83798190D01*
X125556329Y-83658544D01*
X125556336Y-83658538D01*
X125718538Y-83496336D01*
X125718544Y-83496329D01*
X125858190Y-83314338D01*
X125972893Y-83115668D01*
X125972897Y-83115659D01*
X126060681Y-82903730D01*
X126120057Y-82682137D01*
X126132188Y-82590000D01*
X124698482Y-82590000D01*
X124709111Y-82571591D01*
X124750000Y-82418991D01*
X124750000Y-82261009D01*
X124709111Y-82108409D01*
X124698482Y-82090000D01*
X126132188Y-82090000D01*
X126132188Y-82089999D01*
X126120057Y-81997862D01*
X126060681Y-81776269D01*
X125972897Y-81564340D01*
X125972893Y-81564331D01*
X125858190Y-81365661D01*
X125718544Y-81183670D01*
X125718538Y-81183663D01*
X125556336Y-81021461D01*
X125556329Y-81021455D01*
X125374338Y-80881809D01*
X125175668Y-80767106D01*
X125175659Y-80767102D01*
X125095932Y-80734078D01*
X124963730Y-80679318D01*
X124742137Y-80619942D01*
X124514710Y-80590001D01*
X124514694Y-80590000D01*
X124400000Y-80590000D01*
X124400000Y-81791517D01*
X124381591Y-81780889D01*
X124228991Y-81740000D01*
X124071009Y-81740000D01*
X123918409Y-81780889D01*
X123900000Y-81791517D01*
X123900000Y-80590000D01*
X123785306Y-80590000D01*
X123785289Y-80590001D01*
X123557862Y-80619942D01*
X123336269Y-80679318D01*
X123124340Y-80767102D01*
X123124331Y-80767106D01*
X122925661Y-80881809D01*
X122743670Y-81021455D01*
X122743663Y-81021461D01*
X122581461Y-81183663D01*
X122581455Y-81183670D01*
X122441809Y-81365661D01*
X122327106Y-81564331D01*
X122327102Y-81564340D01*
X122239318Y-81776269D01*
X122179942Y-81997862D01*
X122167811Y-82089999D01*
X113632188Y-82089999D01*
X113620057Y-81997862D01*
X113560681Y-81776269D01*
X113472897Y-81564340D01*
X113472893Y-81564331D01*
X113358190Y-81365661D01*
X113218544Y-81183670D01*
X113218538Y-81183663D01*
X113056336Y-81021461D01*
X113056329Y-81021455D01*
X112874338Y-80881809D01*
X112675668Y-80767106D01*
X112675659Y-80767102D01*
X112463730Y-80679318D01*
X112242137Y-80619942D01*
X112014710Y-80590001D01*
X112014694Y-80590000D01*
X111900000Y-80590000D01*
X111900000Y-81791517D01*
X111881591Y-81780889D01*
X111728991Y-81740000D01*
X111571009Y-81740000D01*
X111418409Y-81780889D01*
X111400000Y-81791517D01*
X111400000Y-80590000D01*
X111285306Y-80590000D01*
X111285289Y-80590001D01*
X111057862Y-80619942D01*
X110836269Y-80679318D01*
X110624340Y-80767102D01*
X110624331Y-80767106D01*
X110425661Y-80881809D01*
X110243670Y-81021455D01*
X110243663Y-81021461D01*
X110081461Y-81183663D01*
X110081455Y-81183670D01*
X109941809Y-81365661D01*
X109827106Y-81564331D01*
X109827102Y-81564340D01*
X109739318Y-81776269D01*
X109679942Y-81997862D01*
X109667811Y-82089999D01*
X93390500Y-82089999D01*
X93390500Y-81802939D01*
X93410185Y-81735900D01*
X93426814Y-81715263D01*
X94562078Y-80579999D01*
X126647811Y-80579999D01*
X126647812Y-80580000D01*
X128081518Y-80580000D01*
X128070889Y-80598409D01*
X128030000Y-80751009D01*
X128030000Y-80908991D01*
X128070889Y-81061591D01*
X128081518Y-81080000D01*
X126647812Y-81080000D01*
X126659942Y-81172137D01*
X126719318Y-81393730D01*
X126807102Y-81605659D01*
X126807106Y-81605668D01*
X126921809Y-81804338D01*
X127061455Y-81986329D01*
X127061461Y-81986336D01*
X127223663Y-82148538D01*
X127223670Y-82148544D01*
X127405661Y-82288190D01*
X127604331Y-82402893D01*
X127604340Y-82402897D01*
X127816269Y-82490681D01*
X128037862Y-82550057D01*
X128265289Y-82579998D01*
X128265306Y-82580000D01*
X128380000Y-82580000D01*
X128380000Y-81378482D01*
X128398409Y-81389111D01*
X128551009Y-81430000D01*
X128708991Y-81430000D01*
X128861591Y-81389111D01*
X128880000Y-81378482D01*
X128880000Y-82580000D01*
X128994694Y-82580000D01*
X128994710Y-82579998D01*
X129222137Y-82550057D01*
X129443730Y-82490681D01*
X129655659Y-82402897D01*
X129655668Y-82402893D01*
X129854338Y-82288190D01*
X130036329Y-82148544D01*
X130036336Y-82148538D01*
X130198538Y-81986336D01*
X130198544Y-81986329D01*
X130338190Y-81804338D01*
X130452893Y-81605668D01*
X130452897Y-81605659D01*
X130540681Y-81393730D01*
X130600057Y-81172137D01*
X130612188Y-81080000D01*
X129178482Y-81080000D01*
X129189111Y-81061591D01*
X129230000Y-80908991D01*
X129230000Y-80751009D01*
X129189111Y-80598409D01*
X129178482Y-80580000D01*
X130612188Y-80580000D01*
X130612188Y-80579999D01*
X130600057Y-80487862D01*
X130540681Y-80266269D01*
X130452897Y-80054340D01*
X130452893Y-80054331D01*
X130338190Y-79855661D01*
X130198544Y-79673670D01*
X130198538Y-79673663D01*
X130036336Y-79511461D01*
X130036329Y-79511455D01*
X129854338Y-79371809D01*
X129655668Y-79257106D01*
X129655659Y-79257102D01*
X129443730Y-79169318D01*
X129222137Y-79109942D01*
X128994710Y-79080001D01*
X128994694Y-79080000D01*
X128880000Y-79080000D01*
X128880000Y-80281517D01*
X128861591Y-80270889D01*
X128708991Y-80230000D01*
X128551009Y-80230000D01*
X128398409Y-80270889D01*
X128380000Y-80281517D01*
X128380000Y-79080000D01*
X128265306Y-79080000D01*
X128265289Y-79080001D01*
X128037862Y-79109942D01*
X127816269Y-79169318D01*
X127604340Y-79257102D01*
X127604331Y-79257106D01*
X127405661Y-79371809D01*
X127223670Y-79511455D01*
X127223663Y-79511461D01*
X127061461Y-79673663D01*
X127061455Y-79673670D01*
X126921809Y-79855661D01*
X126807106Y-80054331D01*
X126807102Y-80054340D01*
X126719318Y-80266269D01*
X126659942Y-80487862D01*
X126647811Y-80579999D01*
X94562078Y-80579999D01*
X100656217Y-74485859D01*
X100717538Y-74452376D01*
X100787230Y-74457360D01*
X100843163Y-74499232D01*
X100865513Y-74549349D01*
X100880262Y-74623492D01*
X100880264Y-74623501D01*
X100940602Y-74769172D01*
X100940609Y-74769185D01*
X101028210Y-74900288D01*
X101028213Y-74900292D01*
X101139707Y-75011786D01*
X101139711Y-75011789D01*
X101270814Y-75099390D01*
X101270827Y-75099397D01*
X101416498Y-75159735D01*
X101416503Y-75159737D01*
X101571153Y-75190499D01*
X101571156Y-75190500D01*
X101571158Y-75190500D01*
X101728844Y-75190500D01*
X101728845Y-75190499D01*
X101883497Y-75159737D01*
X102001592Y-75110821D01*
X102029172Y-75099397D01*
X102029172Y-75099396D01*
X102029179Y-75099394D01*
X102160289Y-75011789D01*
X102271789Y-74900289D01*
X102359394Y-74769179D01*
X102419737Y-74623497D01*
X102441858Y-74512282D01*
X102474240Y-74450375D01*
X102475733Y-74448855D01*
X104112772Y-72811819D01*
X104174095Y-72778334D01*
X104200453Y-72775500D01*
X104893976Y-72775500D01*
X104961015Y-72795185D01*
X105006770Y-72847989D01*
X105016714Y-72917147D01*
X104987689Y-72980703D01*
X104962867Y-73002602D01*
X104849711Y-73078210D01*
X104849707Y-73078213D01*
X104738213Y-73189707D01*
X104738210Y-73189711D01*
X104650609Y-73320814D01*
X104650602Y-73320827D01*
X104590264Y-73466498D01*
X104590261Y-73466510D01*
X104559500Y-73621153D01*
X104559500Y-73778846D01*
X104590261Y-73933494D01*
X104590263Y-73933497D01*
X104600780Y-73958889D01*
X104608247Y-74028358D01*
X104576972Y-74090837D01*
X104573901Y-74094019D01*
X104538213Y-74129708D01*
X104538208Y-74129714D01*
X104450609Y-74260814D01*
X104450602Y-74260827D01*
X104390264Y-74406498D01*
X104390261Y-74406510D01*
X104359500Y-74561153D01*
X104359500Y-74718846D01*
X104382999Y-74836985D01*
X104376772Y-74906577D01*
X104349066Y-74948855D01*
X104318208Y-74979714D01*
X104230609Y-75110814D01*
X104230602Y-75110827D01*
X104170264Y-75256498D01*
X104170261Y-75256510D01*
X104139500Y-75411153D01*
X104139500Y-75568846D01*
X104170261Y-75723489D01*
X104170264Y-75723501D01*
X104230600Y-75869167D01*
X104230609Y-75869185D01*
X104318210Y-76000288D01*
X104318213Y-76000292D01*
X104429707Y-76111786D01*
X104429711Y-76111789D01*
X104560814Y-76199390D01*
X104560827Y-76199397D01*
X104682556Y-76249818D01*
X104706503Y-76259737D01*
X104861153Y-76290499D01*
X104861156Y-76290500D01*
X104861158Y-76290500D01*
X105018844Y-76290500D01*
X105018845Y-76290499D01*
X105173497Y-76259737D01*
X105319179Y-76199394D01*
X105413459Y-76136398D01*
X105480136Y-76115520D01*
X105482350Y-76115500D01*
X109881688Y-76115500D01*
X109948727Y-76135185D01*
X109994482Y-76187989D01*
X110004426Y-76257147D01*
X109980063Y-76314987D01*
X109941392Y-76365382D01*
X109826657Y-76564109D01*
X109826650Y-76564123D01*
X109748947Y-76751717D01*
X109738842Y-76776113D01*
X109682427Y-76986661D01*
X109679453Y-76997759D01*
X109679451Y-76997770D01*
X109649500Y-77225258D01*
X109649500Y-77454741D01*
X109672853Y-77632116D01*
X109679452Y-77682238D01*
X109710374Y-77797641D01*
X109738842Y-77903887D01*
X109826650Y-78115876D01*
X109826657Y-78115890D01*
X109941392Y-78314617D01*
X110081081Y-78496661D01*
X110081089Y-78496670D01*
X110243330Y-78658911D01*
X110243338Y-78658918D01*
X110243339Y-78658919D01*
X110265911Y-78676239D01*
X110425382Y-78798607D01*
X110425385Y-78798608D01*
X110425388Y-78798611D01*
X110624112Y-78913344D01*
X110624117Y-78913346D01*
X110624123Y-78913349D01*
X110715480Y-78951190D01*
X110836113Y-79001158D01*
X111057762Y-79060548D01*
X111285266Y-79090500D01*
X111285273Y-79090500D01*
X112014727Y-79090500D01*
X112014734Y-79090500D01*
X112242238Y-79060548D01*
X112463887Y-79001158D01*
X112675888Y-78913344D01*
X112874612Y-78798611D01*
X113056661Y-78658919D01*
X113056665Y-78658914D01*
X113056670Y-78658911D01*
X113218911Y-78496670D01*
X113218914Y-78496665D01*
X113218919Y-78496661D01*
X113358611Y-78314612D01*
X113473344Y-78115888D01*
X113561158Y-77903887D01*
X113620548Y-77682238D01*
X113650500Y-77454734D01*
X113650500Y-77225266D01*
X113650499Y-77225258D01*
X122149500Y-77225258D01*
X122149500Y-77454741D01*
X122172853Y-77632116D01*
X122179452Y-77682238D01*
X122210374Y-77797641D01*
X122238842Y-77903887D01*
X122326650Y-78115876D01*
X122326657Y-78115890D01*
X122441392Y-78314617D01*
X122581081Y-78496661D01*
X122581089Y-78496670D01*
X122743330Y-78658911D01*
X122743338Y-78658918D01*
X122743339Y-78658919D01*
X122765911Y-78676239D01*
X122925382Y-78798607D01*
X122925385Y-78798608D01*
X122925388Y-78798611D01*
X123124112Y-78913344D01*
X123124117Y-78913346D01*
X123124123Y-78913349D01*
X123215480Y-78951190D01*
X123336113Y-79001158D01*
X123557762Y-79060548D01*
X123785266Y-79090500D01*
X123785273Y-79090500D01*
X124514727Y-79090500D01*
X124514734Y-79090500D01*
X124742238Y-79060548D01*
X124963887Y-79001158D01*
X125175888Y-78913344D01*
X125374612Y-78798611D01*
X125556661Y-78658919D01*
X125556665Y-78658914D01*
X125556670Y-78658911D01*
X125718911Y-78496670D01*
X125718914Y-78496665D01*
X125718919Y-78496661D01*
X125858611Y-78314612D01*
X125973344Y-78115888D01*
X126061158Y-77903887D01*
X126120548Y-77682238D01*
X126150500Y-77454734D01*
X126150500Y-77225266D01*
X126120548Y-76997762D01*
X126061158Y-76776113D01*
X125990648Y-76605888D01*
X125973349Y-76564123D01*
X125973346Y-76564117D01*
X125973344Y-76564112D01*
X125858611Y-76365388D01*
X125858608Y-76365385D01*
X125858607Y-76365382D01*
X125731241Y-76199397D01*
X125718919Y-76183339D01*
X125718918Y-76183338D01*
X125718911Y-76183330D01*
X125556670Y-76021089D01*
X125556661Y-76021081D01*
X125374617Y-75881392D01*
X125374612Y-75881389D01*
X125175888Y-75766656D01*
X125175876Y-75766650D01*
X125051804Y-75715258D01*
X126629500Y-75715258D01*
X126629500Y-75944741D01*
X126651982Y-76115500D01*
X126659452Y-76172238D01*
X126711204Y-76365382D01*
X126718842Y-76393887D01*
X126806650Y-76605876D01*
X126806657Y-76605890D01*
X126921392Y-76804617D01*
X127061081Y-76986661D01*
X127061089Y-76986670D01*
X127223330Y-77148911D01*
X127223338Y-77148918D01*
X127405382Y-77288607D01*
X127405385Y-77288608D01*
X127405388Y-77288611D01*
X127604112Y-77403344D01*
X127604117Y-77403346D01*
X127604123Y-77403349D01*
X127686984Y-77437671D01*
X127816113Y-77491158D01*
X128037762Y-77550548D01*
X128265266Y-77580500D01*
X128265273Y-77580500D01*
X128994727Y-77580500D01*
X128994734Y-77580500D01*
X129222238Y-77550548D01*
X129443887Y-77491158D01*
X129655888Y-77403344D01*
X129854612Y-77288611D01*
X130036661Y-77148919D01*
X130036665Y-77148914D01*
X130036670Y-77148911D01*
X130198911Y-76986670D01*
X130198914Y-76986665D01*
X130198919Y-76986661D01*
X130338611Y-76804612D01*
X130453344Y-76605888D01*
X130541158Y-76393887D01*
X130600548Y-76172238D01*
X130630500Y-75944734D01*
X130630500Y-75715266D01*
X130600548Y-75487762D01*
X130541158Y-75266113D01*
X130472102Y-75099397D01*
X130453349Y-75054123D01*
X130453346Y-75054117D01*
X130453344Y-75054112D01*
X130338611Y-74855388D01*
X130338608Y-74855385D01*
X130338607Y-74855382D01*
X130198918Y-74673338D01*
X130198911Y-74673330D01*
X130036670Y-74511089D01*
X130036661Y-74511081D01*
X129854617Y-74371392D01*
X129655890Y-74256657D01*
X129655876Y-74256650D01*
X129443887Y-74168842D01*
X129222238Y-74109452D01*
X129184215Y-74104446D01*
X128994741Y-74079500D01*
X128994734Y-74079500D01*
X128265266Y-74079500D01*
X128265258Y-74079500D01*
X128048715Y-74108009D01*
X128037762Y-74109452D01*
X127962165Y-74129708D01*
X127816112Y-74168842D01*
X127604123Y-74256650D01*
X127604109Y-74256657D01*
X127405382Y-74371392D01*
X127223338Y-74511081D01*
X127061081Y-74673338D01*
X126921392Y-74855382D01*
X126806657Y-75054109D01*
X126806650Y-75054123D01*
X126718842Y-75266112D01*
X126659453Y-75487759D01*
X126659451Y-75487770D01*
X126629500Y-75715258D01*
X125051804Y-75715258D01*
X124963887Y-75678842D01*
X124945327Y-75673869D01*
X124742238Y-75619452D01*
X124704215Y-75614446D01*
X124514741Y-75589500D01*
X124514734Y-75589500D01*
X123785266Y-75589500D01*
X123785258Y-75589500D01*
X123568715Y-75618009D01*
X123557762Y-75619452D01*
X123494339Y-75636446D01*
X123336112Y-75678842D01*
X123124123Y-75766650D01*
X123124109Y-75766657D01*
X122925382Y-75881392D01*
X122743338Y-76021081D01*
X122581081Y-76183338D01*
X122441392Y-76365382D01*
X122326657Y-76564109D01*
X122326650Y-76564123D01*
X122248947Y-76751717D01*
X122238842Y-76776113D01*
X122182427Y-76986661D01*
X122179453Y-76997759D01*
X122179451Y-76997770D01*
X122149500Y-77225258D01*
X113650499Y-77225258D01*
X113620548Y-76997762D01*
X113561158Y-76776113D01*
X113490648Y-76605888D01*
X113473349Y-76564123D01*
X113473346Y-76564117D01*
X113473344Y-76564112D01*
X113358611Y-76365388D01*
X113358608Y-76365385D01*
X113358607Y-76365382D01*
X113319937Y-76314987D01*
X113294742Y-76249818D01*
X113308780Y-76181373D01*
X113357594Y-76131383D01*
X113418312Y-76115500D01*
X116077748Y-76115500D01*
X116138170Y-76103481D01*
X116198593Y-76091463D01*
X116231933Y-76077652D01*
X116312427Y-76044312D01*
X116378310Y-76000289D01*
X116414874Y-75975858D01*
X116501999Y-75888733D01*
X116501999Y-75888731D01*
X116512207Y-75878524D01*
X116512208Y-75878521D01*
X120567187Y-71823543D01*
X126584499Y-71823543D01*
X126622947Y-72016829D01*
X126622950Y-72016839D01*
X126698364Y-72198907D01*
X126698371Y-72198920D01*
X126807860Y-72362781D01*
X126807863Y-72362785D01*
X126947214Y-72502136D01*
X126947218Y-72502139D01*
X127111079Y-72611628D01*
X127111092Y-72611635D01*
X127293160Y-72687049D01*
X127293165Y-72687051D01*
X127293169Y-72687051D01*
X127293170Y-72687052D01*
X127486456Y-72725500D01*
X127486459Y-72725500D01*
X127683543Y-72725500D01*
X127813582Y-72699632D01*
X127876835Y-72687051D01*
X128058914Y-72611632D01*
X128222782Y-72502139D01*
X128362139Y-72362782D01*
X128471632Y-72198914D01*
X128547051Y-72016835D01*
X128585500Y-71823541D01*
X128586689Y-71817566D01*
X128588492Y-71817924D01*
X128611419Y-71761128D01*
X128620980Y-71750386D01*
X132094548Y-68276819D01*
X132121475Y-68262115D01*
X132147294Y-68245523D01*
X132153494Y-68244631D01*
X132155871Y-68243334D01*
X132182229Y-68240500D01*
X132335390Y-68240500D01*
X132402429Y-68260185D01*
X132409358Y-68265228D01*
X132576079Y-68376628D01*
X132576092Y-68376635D01*
X132749416Y-68448427D01*
X132758165Y-68452051D01*
X132758169Y-68452051D01*
X132758170Y-68452052D01*
X132951456Y-68490500D01*
X133135500Y-68490500D01*
X133202539Y-68510185D01*
X133248294Y-68562989D01*
X133259500Y-68614500D01*
X133259500Y-68688846D01*
X133290261Y-68843489D01*
X133290264Y-68843501D01*
X133350602Y-68989172D01*
X133350609Y-68989185D01*
X133438210Y-69120288D01*
X133438213Y-69120292D01*
X133549707Y-69231786D01*
X133549711Y-69231789D01*
X133680814Y-69319390D01*
X133680827Y-69319397D01*
X133804212Y-69370504D01*
X133826503Y-69379737D01*
X133981153Y-69410499D01*
X133981156Y-69410500D01*
X133981158Y-69410500D01*
X134138844Y-69410500D01*
X134138845Y-69410499D01*
X134293497Y-69379737D01*
X134439179Y-69319394D01*
X134570289Y-69231789D01*
X134642078Y-69160000D01*
X135330138Y-69160000D01*
X136133012Y-69160000D01*
X136115795Y-69169940D01*
X136059940Y-69225795D01*
X136020444Y-69294204D01*
X136000000Y-69370504D01*
X136000000Y-69449496D01*
X136020444Y-69525796D01*
X136059940Y-69594205D01*
X136115795Y-69650060D01*
X136133012Y-69660000D01*
X135330138Y-69660000D01*
X135338430Y-69701690D01*
X135338430Y-69701692D01*
X135413807Y-69883671D01*
X135413814Y-69883684D01*
X135523248Y-70047462D01*
X135523251Y-70047466D01*
X135662533Y-70186748D01*
X135662537Y-70186751D01*
X135826315Y-70296185D01*
X135826328Y-70296192D01*
X136008306Y-70371569D01*
X136008318Y-70371572D01*
X136201504Y-70409999D01*
X136201508Y-70410000D01*
X136600000Y-70410000D01*
X136600000Y-69710000D01*
X137100000Y-69710000D01*
X137100000Y-70410000D01*
X137498492Y-70410000D01*
X137498495Y-70409999D01*
X137691681Y-70371572D01*
X137691693Y-70371569D01*
X137873671Y-70296192D01*
X137873684Y-70296185D01*
X138037462Y-70186751D01*
X138037466Y-70186748D01*
X138176748Y-70047466D01*
X138176751Y-70047462D01*
X138286185Y-69883684D01*
X138286192Y-69883671D01*
X138361569Y-69701692D01*
X138361569Y-69701690D01*
X138369862Y-69660000D01*
X137566988Y-69660000D01*
X137584205Y-69650060D01*
X137640060Y-69594205D01*
X137679556Y-69525796D01*
X137700000Y-69449496D01*
X137700000Y-69370504D01*
X137679556Y-69294204D01*
X137640060Y-69225795D01*
X137584205Y-69169940D01*
X137566988Y-69160000D01*
X138369862Y-69160000D01*
X139660138Y-69160000D01*
X140463012Y-69160000D01*
X140445795Y-69169940D01*
X140389940Y-69225795D01*
X140350444Y-69294204D01*
X140330000Y-69370504D01*
X140330000Y-69449496D01*
X140350444Y-69525796D01*
X140389940Y-69594205D01*
X140445795Y-69650060D01*
X140463012Y-69660000D01*
X139660138Y-69660000D01*
X139668430Y-69701690D01*
X139668430Y-69701692D01*
X139743807Y-69883671D01*
X139743814Y-69883684D01*
X139853248Y-70047462D01*
X139853251Y-70047466D01*
X139992533Y-70186748D01*
X139992537Y-70186751D01*
X140156315Y-70296185D01*
X140156328Y-70296192D01*
X140338306Y-70371569D01*
X140338318Y-70371572D01*
X140531504Y-70409999D01*
X140531508Y-70410000D01*
X140780000Y-70410000D01*
X140780000Y-69710000D01*
X141280000Y-69710000D01*
X141280000Y-70410000D01*
X141528492Y-70410000D01*
X141528495Y-70409999D01*
X141721681Y-70371572D01*
X141721693Y-70371569D01*
X141903671Y-70296192D01*
X141903684Y-70296185D01*
X142067462Y-70186751D01*
X142067466Y-70186748D01*
X142206748Y-70047466D01*
X142206751Y-70047462D01*
X142316185Y-69883684D01*
X142316192Y-69883671D01*
X142391569Y-69701692D01*
X142391569Y-69701690D01*
X142399862Y-69660000D01*
X141596988Y-69660000D01*
X141614205Y-69650060D01*
X141670060Y-69594205D01*
X141709556Y-69525796D01*
X141730000Y-69449496D01*
X141730000Y-69370504D01*
X141709556Y-69294204D01*
X141670060Y-69225795D01*
X141614205Y-69169940D01*
X141596988Y-69160000D01*
X142399862Y-69160000D01*
X142391569Y-69118309D01*
X142391569Y-69118307D01*
X142316192Y-68936328D01*
X142316185Y-68936315D01*
X142206751Y-68772537D01*
X142206748Y-68772533D01*
X142067466Y-68633251D01*
X142067462Y-68633248D01*
X141903684Y-68523814D01*
X141903671Y-68523807D01*
X141721693Y-68448430D01*
X141721681Y-68448427D01*
X141528495Y-68410000D01*
X141280000Y-68410000D01*
X141280000Y-69110000D01*
X140780000Y-69110000D01*
X140780000Y-68410000D01*
X140531504Y-68410000D01*
X140338318Y-68448427D01*
X140338306Y-68448430D01*
X140156328Y-68523807D01*
X140156315Y-68523814D01*
X139992537Y-68633248D01*
X139992533Y-68633251D01*
X139853251Y-68772533D01*
X139853248Y-68772537D01*
X139743814Y-68936315D01*
X139743807Y-68936328D01*
X139668430Y-69118307D01*
X139668430Y-69118309D01*
X139660138Y-69160000D01*
X138369862Y-69160000D01*
X138361569Y-69118309D01*
X138361569Y-69118307D01*
X138286192Y-68936328D01*
X138286185Y-68936315D01*
X138176751Y-68772537D01*
X138176748Y-68772533D01*
X138037466Y-68633251D01*
X138037462Y-68633248D01*
X137873684Y-68523814D01*
X137873674Y-68523809D01*
X137795801Y-68491553D01*
X137741398Y-68447712D01*
X137719333Y-68381418D01*
X137736612Y-68313718D01*
X137749665Y-68296915D01*
X137749554Y-68296830D01*
X137754492Y-68290392D01*
X137754501Y-68290384D01*
X137821051Y-68175116D01*
X137855500Y-68046550D01*
X137855500Y-67913450D01*
X137821051Y-67784884D01*
X137754501Y-67669616D01*
X137660384Y-67575499D01*
X137545116Y-67508949D01*
X137416550Y-67474500D01*
X137283450Y-67474500D01*
X137154884Y-67508949D01*
X137154881Y-67508950D01*
X137039619Y-67575497D01*
X137039613Y-67575501D01*
X136945501Y-67669613D01*
X136945497Y-67669619D01*
X136878950Y-67784881D01*
X136878949Y-67784884D01*
X136844500Y-67913450D01*
X136844500Y-68046550D01*
X136878949Y-68175116D01*
X136945499Y-68290384D01*
X137039616Y-68384501D01*
X137039618Y-68384502D01*
X137046067Y-68389451D01*
X137044970Y-68390879D01*
X137086213Y-68434129D01*
X137100000Y-68490955D01*
X137100000Y-69110000D01*
X136600000Y-69110000D01*
X136600000Y-68410000D01*
X136201504Y-68410000D01*
X136008318Y-68448427D01*
X136008306Y-68448430D01*
X135826328Y-68523807D01*
X135826315Y-68523814D01*
X135662537Y-68633248D01*
X135662533Y-68633251D01*
X135523251Y-68772533D01*
X135523248Y-68772537D01*
X135413814Y-68936315D01*
X135413807Y-68936328D01*
X135338430Y-69118307D01*
X135338430Y-69118309D01*
X135330138Y-69160000D01*
X134642078Y-69160000D01*
X134681789Y-69120289D01*
X134769394Y-68989179D01*
X134829737Y-68843497D01*
X134860500Y-68688842D01*
X134860500Y-68531158D01*
X134860500Y-68531155D01*
X134860499Y-68531153D01*
X134852503Y-68490955D01*
X134829737Y-68376503D01*
X134796736Y-68296830D01*
X134769397Y-68230828D01*
X134769396Y-68230827D01*
X134769394Y-68230821D01*
X134706397Y-68136539D01*
X134700747Y-68118494D01*
X134690523Y-68102585D01*
X134686071Y-68071623D01*
X134685520Y-68069863D01*
X134685500Y-68067650D01*
X134685500Y-67282350D01*
X134705185Y-67215311D01*
X134706398Y-67213459D01*
X134706809Y-67212843D01*
X134769394Y-67119179D01*
X134772719Y-67111153D01*
X134829735Y-66973501D01*
X134829737Y-66973497D01*
X134860500Y-66818842D01*
X134860500Y-66661158D01*
X134860500Y-66661155D01*
X134860499Y-66661153D01*
X134834003Y-66527949D01*
X134829737Y-66506503D01*
X134829735Y-66506498D01*
X134769397Y-66360827D01*
X134769390Y-66360814D01*
X134681789Y-66229711D01*
X134681786Y-66229707D01*
X134570292Y-66118213D01*
X134570288Y-66118210D01*
X134439185Y-66030609D01*
X134439172Y-66030602D01*
X134293501Y-65970264D01*
X134293489Y-65970261D01*
X134138845Y-65939500D01*
X134138842Y-65939500D01*
X133981158Y-65939500D01*
X133981155Y-65939500D01*
X133826510Y-65970261D01*
X133826498Y-65970264D01*
X133680827Y-66030602D01*
X133680814Y-66030609D01*
X133549711Y-66118210D01*
X133549707Y-66118213D01*
X133438213Y-66229707D01*
X133438210Y-66229711D01*
X133350609Y-66360814D01*
X133350601Y-66360829D01*
X133324923Y-66422821D01*
X133281082Y-66477224D01*
X133214787Y-66499288D01*
X133186174Y-66496985D01*
X133148541Y-66489500D01*
X132951459Y-66489500D01*
X132951457Y-66489500D01*
X132758170Y-66527947D01*
X132758160Y-66527950D01*
X132576092Y-66603364D01*
X132576079Y-66603371D01*
X132407153Y-66716245D01*
X132406132Y-66714717D01*
X132349745Y-66738666D01*
X132335390Y-66739500D01*
X131746080Y-66739500D01*
X131601092Y-66768340D01*
X131601082Y-66768343D01*
X131464511Y-66824912D01*
X131464498Y-66824919D01*
X131341584Y-66907048D01*
X131341580Y-66907051D01*
X127559621Y-70689010D01*
X127498298Y-70722495D01*
X127489822Y-70723830D01*
X127293170Y-70762947D01*
X127293160Y-70762950D01*
X127111092Y-70838364D01*
X127111079Y-70838371D01*
X126947218Y-70947860D01*
X126947214Y-70947863D01*
X126807863Y-71087214D01*
X126807860Y-71087218D01*
X126698371Y-71251079D01*
X126698364Y-71251092D01*
X126622950Y-71433160D01*
X126622947Y-71433170D01*
X126584500Y-71626456D01*
X126584500Y-71626459D01*
X126584500Y-71823541D01*
X126584500Y-71823543D01*
X126584499Y-71823543D01*
X120567187Y-71823543D01*
X121999025Y-70391705D01*
X122060346Y-70358222D01*
X122130038Y-70363206D01*
X122134122Y-70364813D01*
X122248165Y-70412051D01*
X122248169Y-70412051D01*
X122248170Y-70412052D01*
X122441456Y-70450500D01*
X122441459Y-70450500D01*
X122638543Y-70450500D01*
X122768582Y-70424632D01*
X122831835Y-70412051D01*
X123013914Y-70336632D01*
X123111544Y-70271398D01*
X123178222Y-70250520D01*
X123180435Y-70250500D01*
X124713844Y-70250500D01*
X124713845Y-70250499D01*
X124868497Y-70219737D01*
X125014179Y-70159394D01*
X125145289Y-70071789D01*
X128743185Y-66473891D01*
X128804506Y-66440408D01*
X128806503Y-66439991D01*
X128921835Y-66417051D01*
X129103914Y-66341632D01*
X129267782Y-66232139D01*
X129407139Y-66092782D01*
X129516632Y-65928914D01*
X129592051Y-65746835D01*
X129614958Y-65631668D01*
X129647341Y-65569763D01*
X129648837Y-65568239D01*
X132782819Y-62434258D01*
X132844142Y-62400773D01*
X132913834Y-62405757D01*
X132969767Y-62447629D01*
X132994184Y-62513093D01*
X132994500Y-62521939D01*
X132994500Y-62841611D01*
X132996808Y-62853212D01*
X132996811Y-62853228D01*
X132997264Y-62855501D01*
X133018537Y-62962452D01*
X133024789Y-62977546D01*
X133028570Y-62986674D01*
X133028571Y-62986678D01*
X133065685Y-63076281D01*
X133065691Y-63076292D01*
X133095229Y-63120496D01*
X133095230Y-63120499D01*
X133095231Y-63120499D01*
X133134141Y-63178732D01*
X133134144Y-63178736D01*
X133225586Y-63270178D01*
X133225608Y-63270198D01*
X133343181Y-63387771D01*
X133376666Y-63449094D01*
X133379500Y-63475452D01*
X133379500Y-63518846D01*
X133410261Y-63673489D01*
X133410264Y-63673501D01*
X133470602Y-63819172D01*
X133470609Y-63819185D01*
X133558210Y-63950288D01*
X133558213Y-63950292D01*
X133669707Y-64061786D01*
X133669711Y-64061789D01*
X133800814Y-64149390D01*
X133800827Y-64149397D01*
X133932056Y-64203753D01*
X133946503Y-64209737D01*
X134101153Y-64240499D01*
X134101156Y-64240500D01*
X134101158Y-64240500D01*
X134258844Y-64240500D01*
X134258845Y-64240499D01*
X134413497Y-64209737D01*
X134559179Y-64149394D01*
X134690289Y-64061789D01*
X134801789Y-63950289D01*
X134889394Y-63819179D01*
X134892719Y-63811153D01*
X134949735Y-63673501D01*
X134949737Y-63673497D01*
X134980500Y-63518842D01*
X134980500Y-63361158D01*
X134980500Y-63361155D01*
X134980499Y-63361153D01*
X134962012Y-63268213D01*
X134949737Y-63206503D01*
X134949735Y-63206498D01*
X134889397Y-63060827D01*
X134889390Y-63060814D01*
X134801789Y-62929711D01*
X134801786Y-62929707D01*
X134690292Y-62818213D01*
X134690288Y-62818210D01*
X134559185Y-62730609D01*
X134559172Y-62730602D01*
X134407870Y-62667932D01*
X134408505Y-62666398D01*
X134404057Y-62663732D01*
X134393025Y-62661332D01*
X134364771Y-62640181D01*
X134281819Y-62557229D01*
X134248334Y-62495906D01*
X134245500Y-62469548D01*
X134245500Y-62142350D01*
X134265185Y-62075311D01*
X134266398Y-62073460D01*
X134277775Y-62056433D01*
X134277775Y-62056432D01*
X134329394Y-61979179D01*
X134389737Y-61833497D01*
X134420500Y-61678842D01*
X134420500Y-61521158D01*
X134420500Y-61521155D01*
X134420499Y-61521153D01*
X134406509Y-61450821D01*
X134389737Y-61366503D01*
X134358684Y-61291533D01*
X134329397Y-61220827D01*
X134329390Y-61220814D01*
X134252494Y-61105732D01*
X134243006Y-61075432D01*
X134231912Y-61045687D01*
X134232641Y-61042331D01*
X134231616Y-61039055D01*
X134240015Y-61008436D01*
X134246764Y-60977414D01*
X134249544Y-60973699D01*
X134250100Y-60971675D01*
X134267910Y-60949165D01*
X134611260Y-60605816D01*
X134672581Y-60572334D01*
X134698939Y-60569500D01*
X136076235Y-60569500D01*
X136059940Y-60585795D01*
X136020444Y-60654204D01*
X136000000Y-60730504D01*
X136000000Y-60809496D01*
X136020444Y-60885796D01*
X136059940Y-60954205D01*
X136115795Y-61010060D01*
X136133012Y-61020000D01*
X135330138Y-61020000D01*
X135338430Y-61061690D01*
X135338430Y-61061692D01*
X135413807Y-61243671D01*
X135413814Y-61243684D01*
X135523248Y-61407462D01*
X135523251Y-61407466D01*
X135662533Y-61546748D01*
X135662537Y-61546751D01*
X135826315Y-61656185D01*
X135826328Y-61656192D01*
X136008306Y-61731569D01*
X136008318Y-61731572D01*
X136201504Y-61769999D01*
X136201508Y-61770000D01*
X136600000Y-61770000D01*
X136600000Y-61070000D01*
X137100000Y-61070000D01*
X137100000Y-61689045D01*
X137080315Y-61756084D01*
X137045263Y-61789506D01*
X137046065Y-61790551D01*
X137039613Y-61795501D01*
X136945501Y-61889613D01*
X136945497Y-61889619D01*
X136878950Y-62004881D01*
X136878949Y-62004884D01*
X136844500Y-62133450D01*
X136844500Y-62266550D01*
X136864604Y-62341577D01*
X136878949Y-62395115D01*
X136878950Y-62395118D01*
X136885103Y-62405775D01*
X136945499Y-62510384D01*
X137039616Y-62604501D01*
X137154884Y-62671051D01*
X137283450Y-62705500D01*
X137283452Y-62705500D01*
X137416548Y-62705500D01*
X137416550Y-62705500D01*
X137545116Y-62671051D01*
X137660384Y-62604501D01*
X137754501Y-62510384D01*
X137821051Y-62395116D01*
X137855500Y-62266550D01*
X137855500Y-62133450D01*
X137821051Y-62004884D01*
X137754501Y-61889616D01*
X137754495Y-61889610D01*
X137749554Y-61883170D01*
X137750902Y-61882135D01*
X137722088Y-61829365D01*
X137727072Y-61759673D01*
X137768944Y-61703740D01*
X137795802Y-61688445D01*
X137873680Y-61656187D01*
X137873684Y-61656185D01*
X138037462Y-61546751D01*
X138037466Y-61546748D01*
X138176748Y-61407466D01*
X138176751Y-61407462D01*
X138286185Y-61243684D01*
X138286192Y-61243671D01*
X138361569Y-61061692D01*
X138361569Y-61061690D01*
X138369862Y-61020000D01*
X137566988Y-61020000D01*
X137584205Y-61010060D01*
X137640060Y-60954205D01*
X137679556Y-60885796D01*
X137700000Y-60809496D01*
X137700000Y-60730504D01*
X137679556Y-60654204D01*
X137640060Y-60585795D01*
X137623765Y-60569500D01*
X139059844Y-60569500D01*
X139059845Y-60569499D01*
X139214497Y-60538737D01*
X139360179Y-60478394D01*
X139466751Y-60407184D01*
X139533425Y-60386308D01*
X139600805Y-60404792D01*
X139647495Y-60456770D01*
X139657152Y-60516364D01*
X139660136Y-60520000D01*
X140463012Y-60520000D01*
X140445795Y-60529940D01*
X140389940Y-60585795D01*
X140350444Y-60654204D01*
X140330000Y-60730504D01*
X140330000Y-60809496D01*
X140350444Y-60885796D01*
X140389940Y-60954205D01*
X140445795Y-61010060D01*
X140463012Y-61020000D01*
X139660138Y-61020000D01*
X139668430Y-61061690D01*
X139668430Y-61061692D01*
X139743807Y-61243671D01*
X139743814Y-61243684D01*
X139853248Y-61407462D01*
X139853251Y-61407466D01*
X139992533Y-61546748D01*
X139992537Y-61546751D01*
X140156315Y-61656185D01*
X140156328Y-61656192D01*
X140338306Y-61731569D01*
X140338318Y-61731572D01*
X140531504Y-61769999D01*
X140531508Y-61770000D01*
X140780000Y-61770000D01*
X140780000Y-61070000D01*
X141280000Y-61070000D01*
X141280000Y-61770000D01*
X141528492Y-61770000D01*
X141528495Y-61769999D01*
X141721681Y-61731572D01*
X141721693Y-61731569D01*
X141903671Y-61656192D01*
X141903684Y-61656185D01*
X142067462Y-61546751D01*
X142067466Y-61546748D01*
X142206748Y-61407466D01*
X142206751Y-61407462D01*
X142316185Y-61243684D01*
X142316192Y-61243671D01*
X142391569Y-61061692D01*
X142391569Y-61061690D01*
X142399862Y-61020000D01*
X141596988Y-61020000D01*
X141614205Y-61010060D01*
X141670060Y-60954205D01*
X141709556Y-60885796D01*
X141730000Y-60809496D01*
X141730000Y-60730504D01*
X141709556Y-60654204D01*
X141670060Y-60585795D01*
X141614205Y-60529940D01*
X141596988Y-60520000D01*
X142399862Y-60520000D01*
X142391569Y-60478309D01*
X142391569Y-60478307D01*
X142316192Y-60296328D01*
X142316185Y-60296315D01*
X142206751Y-60132537D01*
X142206748Y-60132533D01*
X142067466Y-59993251D01*
X142067462Y-59993248D01*
X141903684Y-59883814D01*
X141903671Y-59883807D01*
X141721693Y-59808430D01*
X141721681Y-59808427D01*
X141528495Y-59770000D01*
X141280000Y-59770000D01*
X141280000Y-60470000D01*
X140780000Y-60470000D01*
X140780000Y-59770000D01*
X140531504Y-59770000D01*
X140338318Y-59808427D01*
X140338306Y-59808430D01*
X140242363Y-59848171D01*
X140172894Y-59855640D01*
X140110415Y-59824364D01*
X140074763Y-59764275D01*
X140077257Y-59694450D01*
X140080343Y-59686174D01*
X140089737Y-59663498D01*
X140120500Y-59508843D01*
X140120500Y-59351158D01*
X140120500Y-58930434D01*
X140140185Y-58863395D01*
X140141398Y-58861543D01*
X140154266Y-58842285D01*
X140206632Y-58763914D01*
X140282051Y-58581835D01*
X140294632Y-58518582D01*
X140320500Y-58388543D01*
X140320500Y-58191456D01*
X140282052Y-57998170D01*
X140282051Y-57998169D01*
X140282051Y-57998165D01*
X140266133Y-57959735D01*
X140206635Y-57816092D01*
X140206628Y-57816079D01*
X140097139Y-57652218D01*
X140097136Y-57652214D01*
X139957785Y-57512863D01*
X139957781Y-57512860D01*
X139793920Y-57403371D01*
X139793907Y-57403364D01*
X139611839Y-57327950D01*
X139611829Y-57327947D01*
X139418543Y-57289500D01*
X139418541Y-57289500D01*
X139221459Y-57289500D01*
X139221457Y-57289500D01*
X139028170Y-57327947D01*
X139028160Y-57327950D01*
X138846092Y-57403364D01*
X138846079Y-57403371D01*
X138682218Y-57512860D01*
X138682214Y-57512863D01*
X138542863Y-57652214D01*
X138542860Y-57652218D01*
X138433371Y-57816079D01*
X138433364Y-57816092D01*
X138357950Y-57998160D01*
X138357947Y-57998170D01*
X138319500Y-58191456D01*
X138319500Y-58191459D01*
X138319500Y-58388541D01*
X138319500Y-58388543D01*
X138319499Y-58388543D01*
X138357947Y-58581829D01*
X138357950Y-58581839D01*
X138433364Y-58763907D01*
X138433372Y-58763922D01*
X138441181Y-58775608D01*
X138462060Y-58842285D01*
X138443576Y-58909665D01*
X138391598Y-58956356D01*
X138338080Y-58968500D01*
X134237155Y-58968500D01*
X134126024Y-58990606D01*
X134126023Y-58990606D01*
X134082510Y-58999261D01*
X134082498Y-58999264D01*
X133936827Y-59059602D01*
X133936814Y-59059609D01*
X133805712Y-59147209D01*
X133761912Y-59191010D01*
X133694211Y-59258711D01*
X133694209Y-59258713D01*
X131862709Y-61090211D01*
X131801386Y-61123696D01*
X131731694Y-61118712D01*
X131675761Y-61076840D01*
X131660470Y-61049988D01*
X131619394Y-60950821D01*
X131619390Y-60950814D01*
X131531789Y-60819711D01*
X131531786Y-60819707D01*
X131420292Y-60708213D01*
X131420288Y-60708210D01*
X131289185Y-60620609D01*
X131289172Y-60620602D01*
X131143501Y-60560264D01*
X131143489Y-60560261D01*
X130988845Y-60529500D01*
X130988842Y-60529500D01*
X130831158Y-60529500D01*
X130831155Y-60529500D01*
X130676510Y-60560261D01*
X130676498Y-60560264D01*
X130530827Y-60620602D01*
X130530815Y-60620609D01*
X130436541Y-60683602D01*
X130369864Y-60704480D01*
X130367650Y-60704500D01*
X127236191Y-60704500D01*
X127211999Y-60702117D01*
X127198842Y-60699500D01*
X127041158Y-60699500D01*
X127041155Y-60699500D01*
X126886510Y-60730261D01*
X126886498Y-60730264D01*
X126740827Y-60790602D01*
X126740814Y-60790609D01*
X126609711Y-60878210D01*
X126609707Y-60878213D01*
X126498213Y-60989707D01*
X126498210Y-60989711D01*
X126410609Y-61120814D01*
X126410602Y-61120827D01*
X126350264Y-61266498D01*
X126350261Y-61266510D01*
X126319500Y-61421153D01*
X126319500Y-61578846D01*
X126350261Y-61733489D01*
X126350264Y-61733501D01*
X126410602Y-61879172D01*
X126410609Y-61879185D01*
X126498210Y-62010288D01*
X126498213Y-62010292D01*
X126609707Y-62121786D01*
X126609711Y-62121789D01*
X126740814Y-62209390D01*
X126740821Y-62209394D01*
X126799315Y-62233623D01*
X126824863Y-62254210D01*
X126851129Y-62273872D01*
X126851930Y-62276021D01*
X126853717Y-62277461D01*
X126864078Y-62308591D01*
X126875546Y-62339336D01*
X126875058Y-62341577D01*
X126875783Y-62343755D01*
X126867665Y-62375560D01*
X126860694Y-62407609D01*
X126858861Y-62410056D01*
X126858505Y-62411455D01*
X126839544Y-62435864D01*
X126731204Y-62544205D01*
X126669881Y-62577690D01*
X126667714Y-62578141D01*
X126556508Y-62600261D01*
X126556498Y-62600264D01*
X126410827Y-62660602D01*
X126410814Y-62660609D01*
X126279711Y-62748210D01*
X126279707Y-62748213D01*
X126168213Y-62859707D01*
X126168210Y-62859711D01*
X126080609Y-62990814D01*
X126080602Y-62990827D01*
X126020264Y-63136498D01*
X126020261Y-63136510D01*
X125989500Y-63291153D01*
X125989500Y-63448846D01*
X126020261Y-63603489D01*
X126020264Y-63603501D01*
X126080602Y-63749172D01*
X126080609Y-63749185D01*
X126168210Y-63880288D01*
X126168213Y-63880292D01*
X126279707Y-63991786D01*
X126279711Y-63991789D01*
X126410814Y-64079390D01*
X126410827Y-64079397D01*
X126556498Y-64139735D01*
X126556503Y-64139737D01*
X126711153Y-64170499D01*
X126711156Y-64170500D01*
X126711158Y-64170500D01*
X126868844Y-64170500D01*
X126868845Y-64170499D01*
X127023497Y-64139737D01*
X127169179Y-64079394D01*
X127300289Y-63991789D01*
X127411789Y-63880289D01*
X127499394Y-63749179D01*
X127559737Y-63603497D01*
X127581858Y-63492282D01*
X127614240Y-63430375D01*
X127615730Y-63428858D01*
X128152772Y-62891819D01*
X128214095Y-62858334D01*
X128240453Y-62855500D01*
X129627650Y-62855500D01*
X129645634Y-62860780D01*
X129664377Y-62861064D01*
X129692886Y-62874655D01*
X129694689Y-62875185D01*
X129696257Y-62876209D01*
X129696450Y-62876337D01*
X129790821Y-62939394D01*
X129792321Y-62940015D01*
X129798653Y-62944221D01*
X129817475Y-62966617D01*
X129838347Y-62987122D01*
X129839692Y-62993053D01*
X129843605Y-62997709D01*
X129847330Y-63026721D01*
X129853804Y-63055260D01*
X129851728Y-63060978D01*
X129852503Y-63067010D01*
X129839952Y-63093428D01*
X129829969Y-63120939D01*
X129823064Y-63128978D01*
X129822522Y-63130120D01*
X129821582Y-63130704D01*
X129817727Y-63135193D01*
X128516815Y-64436105D01*
X128455492Y-64469590D01*
X128453326Y-64470041D01*
X128338170Y-64492947D01*
X128338160Y-64492950D01*
X128156092Y-64568364D01*
X128156079Y-64568371D01*
X127992218Y-64677860D01*
X127992214Y-64677863D01*
X127852863Y-64817214D01*
X127852860Y-64817218D01*
X127743371Y-64981079D01*
X127743364Y-64981092D01*
X127667950Y-65163160D01*
X127667947Y-65163170D01*
X127645041Y-65278326D01*
X127612656Y-65340237D01*
X127611105Y-65341815D01*
X124339741Y-68613181D01*
X124278418Y-68646666D01*
X124252060Y-68649500D01*
X123180435Y-68649500D01*
X123113396Y-68629815D01*
X123111544Y-68628602D01*
X123013911Y-68563366D01*
X122831839Y-68487950D01*
X122831829Y-68487947D01*
X122638543Y-68449500D01*
X122638541Y-68449500D01*
X122463500Y-68449500D01*
X122396461Y-68429815D01*
X122350706Y-68377011D01*
X122339500Y-68325500D01*
X122339500Y-61130960D01*
X122359185Y-61063921D01*
X122405056Y-61021597D01*
X122409171Y-61019397D01*
X122409179Y-61019394D01*
X122540289Y-60931789D01*
X122651789Y-60820289D01*
X122739394Y-60689179D01*
X122799737Y-60543497D01*
X122830500Y-60388842D01*
X122830500Y-60231158D01*
X122830500Y-60231155D01*
X122830499Y-60231153D01*
X122829726Y-60227267D01*
X122799737Y-60076503D01*
X122753836Y-59965687D01*
X122739397Y-59930827D01*
X122739390Y-59930814D01*
X122681644Y-59844391D01*
X122660766Y-59777713D01*
X122679251Y-59710333D01*
X122731229Y-59663643D01*
X122784746Y-59651500D01*
X127215608Y-59651500D01*
X127215608Y-59651499D01*
X127293879Y-59635931D01*
X127336452Y-59627463D01*
X127369792Y-59613652D01*
X127450286Y-59580312D01*
X127510222Y-59540263D01*
X127510223Y-59540263D01*
X127547282Y-59515500D01*
X127552733Y-59511858D01*
X127639858Y-59424733D01*
X127639859Y-59424730D01*
X127646925Y-59417665D01*
X127646928Y-59417661D01*
X129048797Y-58015791D01*
X129110118Y-57982308D01*
X129112128Y-57981889D01*
X129223497Y-57959737D01*
X129369179Y-57899394D01*
X129500289Y-57811789D01*
X129611789Y-57700289D01*
X129699394Y-57569179D01*
X129759737Y-57423497D01*
X129790500Y-57268842D01*
X129790500Y-57111158D01*
X129790500Y-57111155D01*
X129790499Y-57111153D01*
X129759738Y-56956510D01*
X129759738Y-56956508D01*
X129759737Y-56956503D01*
X129748433Y-56929212D01*
X129699397Y-56810827D01*
X129699390Y-56810814D01*
X129611789Y-56679711D01*
X129611786Y-56679707D01*
X129500292Y-56568213D01*
X129500288Y-56568210D01*
X129369185Y-56480609D01*
X129369172Y-56480602D01*
X129223501Y-56420264D01*
X129223489Y-56420261D01*
X129068845Y-56389500D01*
X129068842Y-56389500D01*
X128911158Y-56389500D01*
X128911155Y-56389500D01*
X128756510Y-56420261D01*
X128756498Y-56420264D01*
X128610827Y-56480602D01*
X128610814Y-56480609D01*
X128479711Y-56568210D01*
X128479707Y-56568213D01*
X128368213Y-56679707D01*
X128368210Y-56679711D01*
X128280609Y-56810814D01*
X128280602Y-56810827D01*
X128220264Y-56956498D01*
X128220261Y-56956508D01*
X128198141Y-57067714D01*
X128165756Y-57129625D01*
X128164205Y-57131203D01*
X127802319Y-57493089D01*
X127740996Y-57526574D01*
X127671304Y-57521590D01*
X127615371Y-57479718D01*
X127611534Y-57474296D01*
X127601788Y-57459709D01*
X127490292Y-57348213D01*
X127490288Y-57348210D01*
X127359185Y-57260609D01*
X127359172Y-57260602D01*
X127213501Y-57200264D01*
X127213489Y-57200261D01*
X127102286Y-57178141D01*
X127040375Y-57145756D01*
X127038796Y-57144205D01*
X122167771Y-52273181D01*
X122134286Y-52211858D01*
X122139270Y-52142166D01*
X122181142Y-52086233D01*
X122246606Y-52061816D01*
X122255452Y-52061500D01*
X125825607Y-52061500D01*
X125886029Y-52049481D01*
X125946452Y-52037463D01*
X125979792Y-52023652D01*
X126060286Y-51990312D01*
X126115057Y-51953714D01*
X126162733Y-51921858D01*
X126249858Y-51834733D01*
X126249858Y-51834731D01*
X126260066Y-51824524D01*
X126260068Y-51824521D01*
X126648797Y-51435791D01*
X126710118Y-51402308D01*
X126712128Y-51401889D01*
X126823497Y-51379737D01*
X126969179Y-51319394D01*
X127100289Y-51231789D01*
X127211789Y-51120289D01*
X127299394Y-50989179D01*
X127359737Y-50843497D01*
X127390500Y-50688842D01*
X127390500Y-50531158D01*
X127390500Y-50531155D01*
X127390499Y-50531153D01*
X127381858Y-50487714D01*
X127359737Y-50376503D01*
X127355857Y-50367136D01*
X127299397Y-50230827D01*
X127299390Y-50230814D01*
X127211789Y-50099711D01*
X127211786Y-50099707D01*
X127100292Y-49988213D01*
X127100288Y-49988210D01*
X126969185Y-49900609D01*
X126969172Y-49900602D01*
X126823501Y-49840264D01*
X126823489Y-49840261D01*
X126668845Y-49809500D01*
X126668842Y-49809500D01*
X126511158Y-49809500D01*
X126511155Y-49809500D01*
X126356510Y-49840261D01*
X126356498Y-49840264D01*
X126210827Y-49900602D01*
X126210814Y-49900609D01*
X126079711Y-49988210D01*
X126079707Y-49988213D01*
X125968213Y-50099707D01*
X125968210Y-50099711D01*
X125880609Y-50230814D01*
X125880602Y-50230827D01*
X125820264Y-50376498D01*
X125820261Y-50376508D01*
X125798141Y-50487714D01*
X125765756Y-50549625D01*
X125764206Y-50551203D01*
X125541227Y-50774182D01*
X125479907Y-50807666D01*
X125453548Y-50810500D01*
X110461516Y-50810500D01*
X110394477Y-50790815D01*
X110348722Y-50738011D01*
X110338778Y-50668853D01*
X110367803Y-50605297D01*
X110426581Y-50567523D01*
X110437325Y-50564883D01*
X110460954Y-50560182D01*
X110501835Y-50552051D01*
X110683914Y-50476632D01*
X110847782Y-50367139D01*
X110987139Y-50227782D01*
X111096632Y-50063914D01*
X111172051Y-49881835D01*
X111184632Y-49818582D01*
X111210500Y-49688543D01*
X111210500Y-49491456D01*
X111172052Y-49298170D01*
X111172051Y-49298169D01*
X111172051Y-49298165D01*
X111172049Y-49298160D01*
X111096635Y-49116092D01*
X111096628Y-49116079D01*
X110987139Y-48952218D01*
X110987136Y-48952214D01*
X110847785Y-48812863D01*
X110847781Y-48812860D01*
X110683920Y-48703371D01*
X110683907Y-48703364D01*
X110501839Y-48627950D01*
X110501829Y-48627947D01*
X110308543Y-48589500D01*
X110308541Y-48589500D01*
X110111459Y-48589500D01*
X110111457Y-48589500D01*
X109918170Y-48627947D01*
X109918160Y-48627950D01*
X109736092Y-48703364D01*
X109736079Y-48703371D01*
X109572218Y-48812860D01*
X109572214Y-48812863D01*
X109432863Y-48952214D01*
X109432860Y-48952218D01*
X109323371Y-49116079D01*
X109323364Y-49116092D01*
X109247950Y-49298160D01*
X109247947Y-49298170D01*
X109225041Y-49413326D01*
X109192656Y-49475237D01*
X109191105Y-49476815D01*
X107288186Y-51379735D01*
X101738711Y-56929211D01*
X101682960Y-56984962D01*
X101627209Y-57040712D01*
X101539609Y-57171814D01*
X101539602Y-57171827D01*
X101479264Y-57317498D01*
X101479261Y-57317510D01*
X101448500Y-57472153D01*
X101448500Y-59515500D01*
X101428815Y-59582539D01*
X101376011Y-59628294D01*
X101324500Y-59639500D01*
X101201155Y-59639500D01*
X101046510Y-59670261D01*
X101046498Y-59670264D01*
X100900827Y-59730602D01*
X100900814Y-59730609D01*
X100769714Y-59818208D01*
X100769709Y-59818212D01*
X100688122Y-59899798D01*
X100647895Y-59926677D01*
X100553716Y-59965687D01*
X100451265Y-60034142D01*
X100451262Y-60034145D01*
X100208949Y-60276460D01*
X100131269Y-60354140D01*
X100131267Y-60354142D01*
X100044142Y-60441267D01*
X100009941Y-60492452D01*
X99991534Y-60520000D01*
X99975686Y-60543717D01*
X99944865Y-60618126D01*
X99944866Y-60618127D01*
X99928537Y-60657548D01*
X99919673Y-60702117D01*
X99919606Y-60702452D01*
X99919605Y-60702453D01*
X99906422Y-60768725D01*
X99906423Y-60768726D01*
X99904500Y-60778394D01*
X99904500Y-70459547D01*
X99884815Y-70526586D01*
X99868181Y-70547228D01*
X93087518Y-77327890D01*
X93026195Y-77361375D01*
X92961521Y-77358141D01*
X92917950Y-77343984D01*
X92734706Y-77314961D01*
X92700222Y-77309500D01*
X92479778Y-77309500D01*
X92407201Y-77320995D01*
X92262047Y-77343985D01*
X92052396Y-77412103D01*
X92052393Y-77412104D01*
X91855974Y-77512187D01*
X91677641Y-77641752D01*
X91677636Y-77641756D01*
X91521756Y-77797636D01*
X91521752Y-77797641D01*
X91392187Y-77975974D01*
X91292104Y-78172393D01*
X91292103Y-78172396D01*
X91223985Y-78382047D01*
X91189500Y-78599778D01*
X91189500Y-78820221D01*
X91223985Y-79037952D01*
X91292103Y-79247603D01*
X91292104Y-79247606D01*
X91392187Y-79444025D01*
X91521752Y-79622358D01*
X91521756Y-79622363D01*
X91677636Y-79778243D01*
X91677641Y-79778247D01*
X91818382Y-79880500D01*
X91855978Y-79907815D01*
X91984375Y-79973237D01*
X92052393Y-80007895D01*
X92052396Y-80007896D01*
X92157221Y-80041955D01*
X92262049Y-80076015D01*
X92479778Y-80110500D01*
X92479779Y-80110500D01*
X92484590Y-80111262D01*
X92484362Y-80112697D01*
X92543577Y-80135266D01*
X92585047Y-80191497D01*
X92589534Y-80261223D01*
X92556240Y-80321681D01*
X92297923Y-80579999D01*
X92079711Y-80798211D01*
X92023960Y-80853962D01*
X91968209Y-80909712D01*
X91880609Y-81040814D01*
X91880602Y-81040827D01*
X91820264Y-81186498D01*
X91820261Y-81186510D01*
X91789500Y-81341153D01*
X91789500Y-82478966D01*
X91769815Y-82546005D01*
X91738387Y-82579283D01*
X91677635Y-82623422D01*
X91521756Y-82779301D01*
X91521752Y-82779306D01*
X91392187Y-82957639D01*
X91292104Y-83154058D01*
X91292103Y-83154061D01*
X91223985Y-83363712D01*
X91189500Y-83581443D01*
X91189500Y-83801886D01*
X91223985Y-84019617D01*
X91292103Y-84229268D01*
X91292104Y-84229271D01*
X91388882Y-84419205D01*
X91401778Y-84487874D01*
X91375502Y-84552614D01*
X91318396Y-84592872D01*
X91278397Y-84599500D01*
X87534500Y-84599500D01*
X87467461Y-84579815D01*
X87421706Y-84527011D01*
X87410500Y-84475500D01*
X87410500Y-77632135D01*
X87904500Y-77632135D01*
X87904500Y-79427870D01*
X87904501Y-79427876D01*
X87910908Y-79487483D01*
X87961202Y-79622328D01*
X87961206Y-79622335D01*
X88047452Y-79737544D01*
X88047455Y-79737547D01*
X88162664Y-79823793D01*
X88162671Y-79823797D01*
X88297517Y-79874091D01*
X88297516Y-79874091D01*
X88304444Y-79874835D01*
X88357127Y-79880500D01*
X90152872Y-79880499D01*
X90212483Y-79874091D01*
X90347331Y-79823796D01*
X90462546Y-79737546D01*
X90548796Y-79622331D01*
X90599091Y-79487483D01*
X90605500Y-79427873D01*
X90605499Y-77632128D01*
X90599091Y-77572517D01*
X90590896Y-77550546D01*
X90548797Y-77437671D01*
X90548793Y-77437664D01*
X90462547Y-77322455D01*
X90462544Y-77322452D01*
X90347335Y-77236206D01*
X90347328Y-77236202D01*
X90212482Y-77185908D01*
X90212483Y-77185908D01*
X90152883Y-77179501D01*
X90152881Y-77179500D01*
X90152873Y-77179500D01*
X90152865Y-77179500D01*
X90142309Y-77179500D01*
X90075270Y-77159815D01*
X90054628Y-77143181D01*
X89384408Y-76472962D01*
X89447993Y-76455925D01*
X89562007Y-76390099D01*
X89655099Y-76297007D01*
X89720925Y-76182993D01*
X89737962Y-76119408D01*
X90370270Y-76751717D01*
X90370270Y-76751716D01*
X90409622Y-76697554D01*
X90506095Y-76508217D01*
X90571757Y-76306130D01*
X90571757Y-76306127D01*
X90605000Y-76096246D01*
X90605000Y-75883753D01*
X90571757Y-75673872D01*
X90571757Y-75673869D01*
X90506095Y-75471782D01*
X90409624Y-75282449D01*
X90370270Y-75228282D01*
X90370269Y-75228282D01*
X89737962Y-75860590D01*
X89720925Y-75797007D01*
X89655099Y-75682993D01*
X89562007Y-75589901D01*
X89447993Y-75524075D01*
X89384409Y-75507037D01*
X90016716Y-74874728D01*
X90016716Y-74874727D01*
X89962554Y-74835377D01*
X89962552Y-74835376D01*
X89773217Y-74738904D01*
X89571129Y-74673242D01*
X89361246Y-74640000D01*
X89148754Y-74640000D01*
X88938872Y-74673242D01*
X88938869Y-74673242D01*
X88736782Y-74738904D01*
X88547439Y-74835380D01*
X88493282Y-74874727D01*
X88493282Y-74874728D01*
X89125591Y-75507037D01*
X89062007Y-75524075D01*
X88947993Y-75589901D01*
X88854901Y-75682993D01*
X88789075Y-75797007D01*
X88772037Y-75860591D01*
X88139728Y-75228282D01*
X88139727Y-75228282D01*
X88100380Y-75282439D01*
X88003904Y-75471782D01*
X87938242Y-75673869D01*
X87938242Y-75673872D01*
X87905000Y-75883753D01*
X87905000Y-76096246D01*
X87938242Y-76306127D01*
X87938242Y-76306130D01*
X88003904Y-76508217D01*
X88100375Y-76697550D01*
X88139728Y-76751716D01*
X88772037Y-76119408D01*
X88789075Y-76182993D01*
X88854901Y-76297007D01*
X88947993Y-76390099D01*
X89062007Y-76455925D01*
X89125590Y-76472962D01*
X88455370Y-77143181D01*
X88394047Y-77176666D01*
X88367698Y-77179500D01*
X88357134Y-77179500D01*
X88357123Y-77179501D01*
X88297516Y-77185908D01*
X88162671Y-77236202D01*
X88162664Y-77236206D01*
X88047455Y-77322452D01*
X88047452Y-77322455D01*
X87961206Y-77437664D01*
X87961202Y-77437671D01*
X87910908Y-77572517D01*
X87904501Y-77632116D01*
X87904501Y-77632123D01*
X87904500Y-77632135D01*
X87410500Y-77632135D01*
X87410500Y-73581483D01*
X91190000Y-73581483D01*
X91190000Y-73801846D01*
X91224473Y-74019500D01*
X91292567Y-74229075D01*
X91392611Y-74425421D01*
X91438932Y-74489178D01*
X92025387Y-73902723D01*
X92030889Y-73923256D01*
X92109881Y-74060073D01*
X92221592Y-74171784D01*
X92358409Y-74250776D01*
X92378939Y-74256277D01*
X91792485Y-74842730D01*
X91792485Y-74842731D01*
X91856243Y-74889053D01*
X92052589Y-74989097D01*
X92262164Y-75057191D01*
X92479819Y-75091665D01*
X92700181Y-75091665D01*
X92917835Y-75057191D01*
X93127410Y-74989097D01*
X93323760Y-74889051D01*
X93387513Y-74842731D01*
X93387514Y-74842731D01*
X92801059Y-74256277D01*
X92821591Y-74250776D01*
X92958408Y-74171784D01*
X93070119Y-74060073D01*
X93149111Y-73923256D01*
X93154612Y-73902725D01*
X93741066Y-74489179D01*
X93741066Y-74489178D01*
X93787386Y-74425425D01*
X93887432Y-74229075D01*
X93955526Y-74019500D01*
X93990000Y-73801846D01*
X93990000Y-73581483D01*
X93955526Y-73363829D01*
X93887432Y-73154254D01*
X93787388Y-72957908D01*
X93741066Y-72894150D01*
X93741065Y-72894150D01*
X93154612Y-73480604D01*
X93149111Y-73460074D01*
X93070119Y-73323257D01*
X92958408Y-73211546D01*
X92821591Y-73132554D01*
X92801057Y-73127052D01*
X93387513Y-72540597D01*
X93323756Y-72494276D01*
X93127410Y-72394232D01*
X92917835Y-72326138D01*
X92700181Y-72291665D01*
X92479819Y-72291665D01*
X92262164Y-72326138D01*
X92052589Y-72394232D01*
X91856233Y-72494281D01*
X91792485Y-72540596D01*
X91792485Y-72540597D01*
X92378940Y-73127052D01*
X92358409Y-73132554D01*
X92221592Y-73211546D01*
X92109881Y-73323257D01*
X92030889Y-73460074D01*
X92025387Y-73480605D01*
X91438932Y-72894150D01*
X91438931Y-72894150D01*
X91392616Y-72957898D01*
X91292567Y-73154254D01*
X91224473Y-73363829D01*
X91190000Y-73581483D01*
X87410500Y-73581483D01*
X87410500Y-60872135D01*
X88074500Y-60872135D01*
X88074500Y-62667870D01*
X88074501Y-62667876D01*
X88080908Y-62727483D01*
X88131202Y-62862328D01*
X88131206Y-62862335D01*
X88217452Y-62977544D01*
X88217454Y-62977546D01*
X88332664Y-63063793D01*
X88332671Y-63063797D01*
X88371540Y-63078294D01*
X88467517Y-63114091D01*
X88527127Y-63120500D01*
X88537685Y-63120499D01*
X88604723Y-63140179D01*
X88625372Y-63156818D01*
X89295591Y-63827037D01*
X89232007Y-63844075D01*
X89117993Y-63909901D01*
X89024901Y-64002993D01*
X88959075Y-64117007D01*
X88942037Y-64180591D01*
X88309728Y-63548282D01*
X88309727Y-63548282D01*
X88270380Y-63602439D01*
X88173904Y-63791782D01*
X88108242Y-63993869D01*
X88108242Y-63993872D01*
X88075000Y-64203753D01*
X88075000Y-64416246D01*
X88108242Y-64626127D01*
X88108242Y-64626130D01*
X88173904Y-64828217D01*
X88270375Y-65017550D01*
X88309728Y-65071716D01*
X88942037Y-64439408D01*
X88959075Y-64502993D01*
X89024901Y-64617007D01*
X89117993Y-64710099D01*
X89232007Y-64775925D01*
X89295590Y-64792962D01*
X88663282Y-65425269D01*
X88663282Y-65425270D01*
X88717449Y-65464624D01*
X88906782Y-65561095D01*
X89108870Y-65626757D01*
X89318754Y-65660000D01*
X89531246Y-65660000D01*
X89741127Y-65626757D01*
X89741130Y-65626757D01*
X89943217Y-65561095D01*
X90132554Y-65464622D01*
X90186716Y-65425270D01*
X90186717Y-65425270D01*
X89554408Y-64792962D01*
X89617993Y-64775925D01*
X89732007Y-64710099D01*
X89825099Y-64617007D01*
X89890925Y-64502993D01*
X89907962Y-64439408D01*
X90540270Y-65071717D01*
X90540270Y-65071716D01*
X90579622Y-65017554D01*
X90676095Y-64828217D01*
X90741757Y-64626130D01*
X90741757Y-64626127D01*
X90775000Y-64416246D01*
X90775000Y-64203753D01*
X90741757Y-63993872D01*
X90741757Y-63993869D01*
X90676095Y-63791782D01*
X90579624Y-63602449D01*
X90540270Y-63548282D01*
X90540269Y-63548282D01*
X89907962Y-64180590D01*
X89890925Y-64117007D01*
X89825099Y-64002993D01*
X89732007Y-63909901D01*
X89617993Y-63844075D01*
X89554409Y-63827037D01*
X90224627Y-63156818D01*
X90285950Y-63123333D01*
X90312307Y-63120499D01*
X90322872Y-63120499D01*
X90382483Y-63114091D01*
X90517331Y-63063796D01*
X90632546Y-62977546D01*
X90718796Y-62862331D01*
X90769091Y-62727483D01*
X90775500Y-62667873D01*
X90775499Y-60872128D01*
X90769091Y-60812517D01*
X90767964Y-60809496D01*
X90718797Y-60677671D01*
X90718793Y-60677664D01*
X90632547Y-60562455D01*
X90632544Y-60562452D01*
X90517335Y-60476206D01*
X90517328Y-60476202D01*
X90382482Y-60425908D01*
X90382483Y-60425908D01*
X90322883Y-60419501D01*
X90322881Y-60419500D01*
X90322873Y-60419500D01*
X90322864Y-60419500D01*
X88527129Y-60419500D01*
X88527123Y-60419501D01*
X88467516Y-60425908D01*
X88332671Y-60476202D01*
X88332664Y-60476206D01*
X88217455Y-60562452D01*
X88217452Y-60562455D01*
X88131206Y-60677664D01*
X88131202Y-60677671D01*
X88080908Y-60812517D01*
X88074501Y-60872116D01*
X88074501Y-60872123D01*
X88074500Y-60872135D01*
X87410500Y-60872135D01*
X87410500Y-48014500D01*
X87430185Y-47947461D01*
X87482989Y-47901706D01*
X87534500Y-47890500D01*
X142655500Y-47890500D01*
X142722539Y-47910185D01*
G37*
%TD.AperFunction*%
%TA.AperFunction,Conductor*%
G36*
X105633333Y-58973770D02*
G01*
X105677680Y-59002271D01*
X106187263Y-59511855D01*
X106187267Y-59511858D01*
X106289710Y-59580309D01*
X106289711Y-59580309D01*
X106289715Y-59580312D01*
X106338710Y-59600606D01*
X106403548Y-59627463D01*
X106423597Y-59631451D01*
X106432174Y-59633157D01*
X106524392Y-59651501D01*
X106524394Y-59651501D01*
X106653721Y-59651501D01*
X106653741Y-59651500D01*
X116275500Y-59651500D01*
X116342539Y-59671185D01*
X116388294Y-59723989D01*
X116399500Y-59775500D01*
X116399500Y-59778846D01*
X116430261Y-59933489D01*
X116430264Y-59933501D01*
X116490602Y-60079172D01*
X116490609Y-60079184D01*
X116553602Y-60173459D01*
X116574480Y-60240136D01*
X116574500Y-60242350D01*
X116574500Y-61133059D01*
X116554815Y-61200098D01*
X116502011Y-61245853D01*
X116432853Y-61255797D01*
X116369297Y-61226772D01*
X116362819Y-61220740D01*
X116350292Y-61208213D01*
X116350288Y-61208210D01*
X116219185Y-61120609D01*
X116219172Y-61120602D01*
X116073501Y-61060264D01*
X116073489Y-61060261D01*
X115918845Y-61029500D01*
X115918842Y-61029500D01*
X115761158Y-61029500D01*
X115761155Y-61029500D01*
X115606510Y-61060261D01*
X115606498Y-61060264D01*
X115460827Y-61120602D01*
X115460814Y-61120609D01*
X115329711Y-61208210D01*
X115329707Y-61208213D01*
X115218213Y-61319707D01*
X115218210Y-61319711D01*
X115130609Y-61450814D01*
X115130602Y-61450827D01*
X115070264Y-61596498D01*
X115070261Y-61596508D01*
X115048141Y-61707714D01*
X115015756Y-61769625D01*
X115014205Y-61771203D01*
X113511270Y-63274139D01*
X113424144Y-63361264D01*
X113424138Y-63361272D01*
X113389914Y-63412489D01*
X113389915Y-63412490D01*
X113355688Y-63463713D01*
X113355685Y-63463718D01*
X113339994Y-63501604D01*
X113339993Y-63501607D01*
X113308538Y-63577545D01*
X113308535Y-63577555D01*
X113284500Y-63698389D01*
X113284500Y-70529548D01*
X113264815Y-70596587D01*
X113248181Y-70617229D01*
X112377229Y-71488181D01*
X112315906Y-71521666D01*
X112289548Y-71524500D01*
X103916939Y-71524500D01*
X103849900Y-71504815D01*
X103804145Y-71452011D01*
X103794201Y-71382853D01*
X103823226Y-71319297D01*
X103829258Y-71312819D01*
X104215953Y-70926124D01*
X104673185Y-70468891D01*
X104734506Y-70435408D01*
X104736503Y-70434991D01*
X104851835Y-70412051D01*
X105033914Y-70336632D01*
X105131544Y-70271398D01*
X105198222Y-70250520D01*
X105200435Y-70250500D01*
X106619565Y-70250500D01*
X106686604Y-70270185D01*
X106688456Y-70271398D01*
X106786086Y-70336632D01*
X106786087Y-70336632D01*
X106786088Y-70336633D01*
X106854155Y-70364827D01*
X106968165Y-70412051D01*
X106968169Y-70412051D01*
X106968170Y-70412052D01*
X107161456Y-70450500D01*
X107161459Y-70450500D01*
X107358543Y-70450500D01*
X107488582Y-70424632D01*
X107551835Y-70412051D01*
X107733914Y-70336632D01*
X107897782Y-70227139D01*
X108037139Y-70087782D01*
X108146632Y-69923914D01*
X108222051Y-69741835D01*
X108260500Y-69548541D01*
X108260500Y-69351459D01*
X108260500Y-69351456D01*
X108222052Y-69158170D01*
X108222051Y-69158169D01*
X108222051Y-69158165D01*
X108206364Y-69120292D01*
X108146635Y-68976092D01*
X108146628Y-68976079D01*
X108037139Y-68812218D01*
X108037136Y-68812214D01*
X107897785Y-68672863D01*
X107897781Y-68672860D01*
X107733920Y-68563371D01*
X107733907Y-68563364D01*
X107551839Y-68487950D01*
X107551829Y-68487947D01*
X107358543Y-68449500D01*
X107358541Y-68449500D01*
X107161459Y-68449500D01*
X107161457Y-68449500D01*
X106968170Y-68487947D01*
X106968160Y-68487950D01*
X106786088Y-68563366D01*
X106688456Y-68628602D01*
X106621778Y-68649480D01*
X106619565Y-68649500D01*
X105200435Y-68649500D01*
X105133396Y-68629815D01*
X105131544Y-68628602D01*
X105033911Y-68563366D01*
X104851839Y-68487950D01*
X104851829Y-68487947D01*
X104736672Y-68465041D01*
X104674762Y-68432656D01*
X104673183Y-68431105D01*
X104422655Y-68180577D01*
X104389170Y-68119254D01*
X104394154Y-68049562D01*
X104436026Y-67993629D01*
X104501490Y-67969212D01*
X104534528Y-67971279D01*
X104631155Y-67990500D01*
X104631158Y-67990500D01*
X104788844Y-67990500D01*
X104788845Y-67990499D01*
X104943497Y-67959737D01*
X105089179Y-67899394D01*
X105220289Y-67811789D01*
X105331789Y-67700289D01*
X105419394Y-67569179D01*
X105479737Y-67423497D01*
X105510500Y-67268842D01*
X105510500Y-67111158D01*
X105510500Y-67111155D01*
X105510499Y-67111153D01*
X105483117Y-66973497D01*
X105479737Y-66956503D01*
X105479735Y-66956498D01*
X105419397Y-66810828D01*
X105419396Y-66810827D01*
X105419394Y-66810821D01*
X105356397Y-66716539D01*
X105335520Y-66649863D01*
X105335500Y-66647650D01*
X105335500Y-59220451D01*
X105344144Y-59191010D01*
X105350668Y-59161024D01*
X105354422Y-59156008D01*
X105355185Y-59153412D01*
X105371815Y-59132774D01*
X105502318Y-59002270D01*
X105563641Y-58968786D01*
X105633333Y-58973770D01*
G37*
%TD.AperFunction*%
%TA.AperFunction,Conductor*%
G36*
X120577539Y-52081185D02*
G01*
X120623294Y-52133989D01*
X120634500Y-52185500D01*
X120634500Y-52311611D01*
X120658535Y-52432444D01*
X120658540Y-52432461D01*
X120705685Y-52546280D01*
X120705687Y-52546283D01*
X120705688Y-52546286D01*
X120739915Y-52597509D01*
X120774142Y-52648733D01*
X120861267Y-52735858D01*
X120861269Y-52735859D01*
X120871232Y-52745822D01*
X126154205Y-58028796D01*
X126187690Y-58090119D01*
X126188141Y-58092286D01*
X126207867Y-58191456D01*
X126210263Y-58203497D01*
X126220847Y-58229049D01*
X126228315Y-58298518D01*
X126197039Y-58360997D01*
X126136950Y-58396649D01*
X126106285Y-58400500D01*
X106896453Y-58400500D01*
X106829414Y-58380815D01*
X106808772Y-58364181D01*
X106415793Y-57971203D01*
X106382308Y-57909880D01*
X106381887Y-57907864D01*
X106359737Y-57796503D01*
X106335599Y-57738230D01*
X106299397Y-57650827D01*
X106299390Y-57650814D01*
X106211789Y-57519711D01*
X106211786Y-57519707D01*
X106100292Y-57408213D01*
X106100288Y-57408210D01*
X105969185Y-57320609D01*
X105969172Y-57320602D01*
X105823501Y-57260264D01*
X105823491Y-57260261D01*
X105784809Y-57252567D01*
X105722898Y-57220182D01*
X105688324Y-57159466D01*
X105692064Y-57089697D01*
X105721318Y-57043271D01*
X110666771Y-52097819D01*
X110728094Y-52064334D01*
X110754452Y-52061500D01*
X120510500Y-52061500D01*
X120577539Y-52081185D01*
G37*
%TD.AperFunction*%
%TD*%
M02*
