M48
; DRILL file {KiCad 9.0.4} date 2026-07-01T04:03:50+0200
; FORMAT={-:-/ absolute / metric / decimal}
; #@! TF.CreationDate,2026-07-01T04:03:50+02:00
; #@! TF.GenerationSoftware,Kicad,Pcbnew,9.0.4
; #@! TF.FileFunction,Plated,1,2,PTH
FMAT,2
METRIC
; #@! TA.AperFunction,Plated,PTH,ComponentDrill
T1C0.200
; #@! TA.AperFunction,Plated,PTH,ViaDrill
T2C0.300
; #@! TA.AperFunction,Plated,PTH,ViaDrill
T3C0.500
; #@! TA.AperFunction,Plated,PTH,ComponentDrill
T4C0.600
; #@! TA.AperFunction,Plated,PTH,ComponentDrill
T5C1.000
; #@! TA.AperFunction,Plated,PTH,ComponentDrill
T6C1.200
%
G90
G05
T1
X113.352Y-55.745
X113.352Y-57.145
X114.052Y-55.045
X114.052Y-56.445
X114.052Y-57.845
X114.752Y-55.745
X114.752Y-57.145
X115.453Y-55.045
X115.453Y-56.445
X115.453Y-57.845
X116.152Y-55.745
X116.152Y-57.145
T2
X95.17Y-73.86
X101.28Y-60.44
X101.65Y-74.39
X103.05Y-58.4
X104.71Y-67.19
X104.94Y-75.49
X105.16Y-74.64
X105.36Y-73.7
X105.59Y-58.03
X106.76Y-72.84
X109.62Y-57.54
X115.15Y-68.4
X115.84Y-61.83
X116.46Y-63.89
X117.2Y-59.7
X118.58Y-52.68
X119.57Y-49.45
X122.03Y-60.31
X126.59Y-50.61
X126.79Y-63.37
X126.98Y-57.97
X127.12Y-61.5
X128.99Y-57.19
X130.17Y-62.23
X130.91Y-61.33
X132.11Y-55.71
X133.62Y-61.6
X134.06Y-66.74
X134.06Y-68.61
X134.18Y-63.44
T3
X104.56Y-69.45
X107.26Y-69.45
X110.21Y-49.59
X111.12Y-68.32
X111.16Y-61.01
X112.76Y-53.32
X122.54Y-69.45
X127.585Y-71.725
X128.63Y-65.455
X133.05Y-67.49
X139.32Y-58.29
X141.0Y-57.31
X141.54Y-53.27
T5
X89.255Y-75.99
X89.255Y-78.53
X89.425Y-61.77
X89.425Y-64.31
T6
X92.59Y-73.692
X92.59Y-78.71
X92.59Y-83.692
X111.65Y-77.34
X111.65Y-82.34
X124.15Y-77.34
X124.15Y-82.34
X128.63Y-75.83
X128.63Y-80.83
X141.13Y-75.83
X141.13Y-80.83
T4
G00X136.3Y-60.77
M15
G01X137.4Y-60.77
M16
G05
G00X136.3Y-69.41
M15
G01X137.4Y-69.41
M16
G05
G00X140.63Y-60.77
M15
G01X141.43Y-60.77
M16
G05
G00X140.63Y-69.41
M15
G01X141.43Y-69.41
M16
G05
M30
